<svg id="guignols-logo-black" xmlns="http://www.w3.org/2000/svg" viewBox="0 0 554.72 622.47"><defs><style>.cls-1{fill:none;}.cls-2{fill:#fff;}</style></defs><title>guignols-logo-white-typo</title><g id="lines"><path class="cls-1" d="M204.6,171.56l5.36-2.43-9.05-6.57,3.34-1.36a313.55,313.55,0,0,1,55.73-10l-.55,3c-21.59,1.68-43.08,7-50.21,9.51l4.94,3.59,9.15-4.15,11.11,23.8-20.73-15.05-5.15,2.33,38.1,25.28c.56-1.22,1-2.35,1.45-3.32L228.14,165.4l6.81-1.11c11.4-1.85,22.38-2.38,25.33-2.63l1,8.95c-4.62.38-13.29.88-18,1.53l14.87,22.92-.78,2.12c-.1.27-1.26,3.38-3.12,7.3l9.46,6.28a6.49,6.49,0,0,1,13,0l7.37-4.39c-2.38-4.76-3.91-8.86-4-9.17l-.75-2,14.88-24.63c-5-.4-13.94-.62-19-.68l1.26-6.09.35-2.75c5.51.23,20,.65,25.42,1.28l7,.8-19.91,33c.65,1.57,1.53,3.58,2.56,5.68L334,176.59l-9.36-3.8-22.78,16.59,11.28-25.57,10.94,4.44,5.49-4c-5.49-2.05-33.52-5-49.6-7.51l5-4.09c19.44,3.53,48.77,8.92,49.53,9.25l3.16,1.41L328.43,170l8.86,3.59L343,161.18l-14.12-4.62-5.33-1.83L288,148.89l7.83-4.67,20.53,3.6,20.78-17.54L282,54.35l-6.7-16.94-75.54,98.2,17.54,8.74c19.26-7.73,29.91-7.74,51.15-7.74,2,0,8.05.05,10.08.12l-9.32,6c-22.61.73-56.06,7.72-77.85,19.91l.07.23Zm60.57,29.5a2.17,2.17,0,1,1,2.17-2.17A2.17,2.17,0,0,1,265.17,201.06Zm11-7.17a3,3,0,1,1-3-3A3,3,0,0,1,276.17,193.89Zm6.91-54.62,29.84-12.57L274,63l-46,63.54,60.51-11-16-24.67-15.09,17.88,9.63-1.94,4.59-9.51,1.25,3.88.63,4.33h.05l4.19,6.18L239,119.56l34.13-40.43,22.28,34.24,6.55,6.79L212,136.57l62.23-85.87,52.8,80.72-37.83,11.1L271.6,157.07l-2.6,15-3,3.33-1.26-22.68Zm-13.41,45.62a5.5,5.5,0,1,1-5.5-5.5A5.51,5.51,0,0,1,269.67,184.89Z"/><polygon class="cls-1" points="320.25 171.02 315.21 168.97 311.5 177.4 320.25 171.02"/><path class="cls-1" d="M285.48,243.92a42.5,42.5,0,0,1,14-7.37,43.78,43.78,0,0,1,6.82-1.48,74.9,74.9,0,0,0-15.52-6.71l-.52-.16-1-.57a41.49,41.49,0,0,0-3.67,3.35c-4.55,4.62-7.79,10.54-10.16,16.84A96.15,96.15,0,0,0,271,265.24a46.92,46.92,0,0,1,4.24-9.51A43,43,0,0,1,285.48,243.92Z"/><path class="cls-1" d="M228.67,273.05a15.68,15.68,0,1,0,15.68,15.68A15.69,15.69,0,0,0,228.67,273.05Zm0,28.58a12.74,12.74,0,1,1,12.74-12.74A12.75,12.75,0,0,1,228.65,301.63Z"/><path class="cls-1" d="M315.48,234.8a44.34,44.34,0,0,1,9.36,1.81,84.68,84.68,0,0,0-25.12-15.39,52.25,52.25,0,0,0-6.63,3.66,80.26,80.26,0,0,1,20.22,9.8C314,234.7,314.76,234.74,315.48,234.8Z"/><circle class="cls-1" cx="264.17" cy="184.89" r="2.5"/><path class="cls-1" d="M237.59,235.56A41.81,41.81,0,0,1,251.51,243a42.72,42.72,0,0,1,10.08,11.84,47,47,0,0,1,4,9.06,101.51,101.51,0,0,0-3.73-14.26c-2.31-6.57-5.44-12.83-9.86-17.87a41.29,41.29,0,0,0-4.34-4.25l-.25.28-.37.4-.52.16a74.89,74.89,0,0,0-14.19,5.95A43.1,43.1,0,0,1,237.59,235.56Z"/><path class="cls-1" d="M221.7,233.81c1.29-.11,2.59-.16,3.88-.14a80.12,80.12,0,0,1,18.66-8.78,46,46,0,0,0-6.47-3.72,84.57,84.57,0,0,0-23.51,13.94A43.46,43.46,0,0,1,221.7,233.81Z"/><path class="cls-1" d="M265.4,289.45c0-.57,0-1.1,0-1.65a46.35,46.35,0,0,0-.4-6.14,35.35,35.35,0,0,0-1.37-5.91,28.42,28.42,0,0,0-5.93-10.29,27.15,27.15,0,0,0-9.75-6.82,32.93,32.93,0,0,0-34.55,6.23,30.19,30.19,0,0,0-7.18,10.32,39.09,39.09,0,0,0-2.88,12.58,41.68,41.68,0,0,1,.14-6.58,34.62,34.62,0,0,1,1.36-6.51A31.25,31.25,0,0,1,211.52,263a35.7,35.7,0,0,1,38.17-8.78A32.07,32.07,0,0,1,261.43,262a29.18,29.18,0,0,1,3.5,4.43A46,46,0,0,0,259.68,256a39.89,39.89,0,0,0-10.21-10.35,37.86,37.86,0,0,0-13.06-5.79,37.17,37.17,0,0,0-11.75-.8,76.94,76.94,0,0,0-32.33,62.31c0,.35,0,.69,0,1a32.36,32.36,0,0,0,18.11,15,39.55,39.55,0,0,0,26.94-.9,30.44,30.44,0,0,0,11.44-7.81,22.13,22.13,0,0,0,3.77-5.91,20.25,20.25,0,0,0,1.55-6.92,20.54,20.54,0,0,1-1,7.12,23,23,0,0,1-3.43,6.42,32.11,32.11,0,0,1-11.38,9.15,42.9,42.9,0,0,1-29.13,3.17,37.9,37.9,0,0,1-13.77-6.62c-.75-.57-1.47-1.18-2.17-1.8A76.32,76.32,0,1,0,330.62,257q-1.36-.59-2.76-1.08a50,50,0,0,0-23.77-2.3,35.44,35.44,0,0,0-11.49,3.73,22,22,0,0,0-4.91,3.56,17,17,0,0,0-3.51,5,17.16,17.16,0,0,1,3.24-5.24,22.52,22.52,0,0,1,4.8-3.95,36.55,36.55,0,0,1,11.6-4.56,52.13,52.13,0,0,1,23.49.55,77.26,77.26,0,0,0-13-12.42,37.67,37.67,0,0,0-13.63.57,38.55,38.55,0,0,0-13.18,5.74c-4,2.73-8,6-10.36,10.31a58.11,58.11,0,0,0-6.61,25.85,43.7,43.7,0,0,0,.29,6.62l0,1.51c.06,1,.14,2,.29,3a29.65,29.65,0,0,0,1.43,5.82,27.66,27.66,0,0,0,6.31,10,30.3,30.3,0,0,0,9.94,6.77,34.11,34.11,0,0,0,5.81,1.89,34.58,34.58,0,0,0,6.08.89,32.44,32.44,0,0,0,12.15-1.61,26.79,26.79,0,0,0,10.49-6.36,28,28,0,0,0,6.7-10.56,41.46,41.46,0,0,0,2.32-12.7,47.41,47.41,0,0,1,.14,6.58,34.87,34.87,0,0,1-1,6.57,29.32,29.32,0,0,1-6.2,11.95,29.78,29.78,0,0,1-11.19,7.87,35.21,35.21,0,0,1-13.53,2.51A37.34,37.34,0,0,1,287,321a35.26,35.26,0,0,1-11.77-7.54,32.31,32.31,0,0,1-7.65-11.86,35,35,0,0,1-1.76-6.85c-.18-1.16-.29-2.33-.37-3.5Zm-36.73,19.27a20,20,0,1,1,20-20A20,20,0,0,1,228.67,308.73Zm78,1.67a21.67,21.67,0,1,1,21.67-21.67A21.69,21.69,0,0,1,306.67,310.39Zm-12.25,19.79a10.71,10.71,0,1,1,0,21.41H284.09v7.19c0,4.48-7.16,8.1-16.17,8.1-8.66,0-16.17-3.63-16.17-8.1V351.6H241.42a10.71,10.71,0,1,1,0-21.41Z"/><path class="cls-1" d="M300.21,340.89a5.8,5.8,0,0,0-5.79-5.79H284.09v11.59h10.33A5.8,5.8,0,0,0,300.21,340.89Z"/><rect class="cls-1" x="262.3" y="343.28" width="10.72" height="10.72" transform="translate(-168.13 291.36) rotate(-45)"/><path class="cls-1" d="M235.62,340.89a5.8,5.8,0,0,0,5.79,5.79h10.33V335.1H241.42A5.8,5.8,0,0,0,235.62,340.89Z"/><path class="cls-1" d="M376.71,217.16a12,12,0,0,0-3.63-.59,8.81,8.81,0,0,0-5.15,1.57,9.79,9.79,0,0,0-3.87,7.93,18.66,18.66,0,0,0,12.27,17.41,9.78,9.78,0,0,0,8.77-1c5-3.52,5.19-11.84.46-18.56A17.64,17.64,0,0,0,376.71,217.16Zm.9,22.17a6.55,6.55,0,0,1-3.26-.14,10,10,0,0,1-6.92-9.8,6.54,6.54,0,0,1,1-3.12,3.93,3.93,0,0,1,2.51-1.82,5.17,5.17,0,0,0-.65,2.48,7.67,7.67,0,0,0,.32,2.23,13.78,13.78,0,0,0,2,4,13.63,13.63,0,0,0,3.09,3.18,7.62,7.62,0,0,0,2,1,5.16,5.16,0,0,0,2.56.21A3.93,3.93,0,0,1,377.62,239.33Z"/><path class="cls-1" d="M370.07,199.39a17.56,17.56,0,0,0-10.3,3.33c-11.39,8-12.33,26.36-2.1,40.87s27.82,19.78,39.2,11.75c6.87-4.85,8-12.06,7.7-17.27-.37-6.85-3.4-14.76-8.29-21.7C389.72,207.08,379.77,199.39,370.07,199.39Zm20.68,51.09a15.79,15.79,0,0,1-9.22,2.84,20.53,20.53,0,0,1-6.2-1,30.08,30.08,0,0,1-19.92-28.25c.21-6,2.67-10.91,6.91-13.9s9.71-3.64,15.42-1.83a28.62,28.62,0,0,1,14.42,11C400,230.42,399.36,244.41,390.74,250.48Z"/><path class="cls-1" d="M338.7,254a41,41,0,0,0-10.67-8.9,38.62,38.62,0,0,0-4.38-2.16,80,80,0,0,1,9.2,10.21c.49.65,1,1.3,1.42,2a44.89,44.89,0,0,1,8.81,5A46.88,46.88,0,0,0,338.7,254Z"/><path class="cls-1" d="M149.49,241.68c4.42,3.12,11.7.42,16.24-6s4.63-14.2.21-17.31a7.35,7.35,0,0,0-4.3-1.3c-4,0-8.68,2.69-11.94,7.31a17.79,17.79,0,0,0-3.45,10.07C146.25,237.64,147.4,240.21,149.49,241.68Zm6.15-5.31a7.61,7.61,0,0,0,2-1,13.64,13.64,0,0,0,3.09-3.18,13.78,13.78,0,0,0,2-4,7.66,7.66,0,0,0,.32-2.23,5.17,5.17,0,0,0-.65-2.48,3.93,3.93,0,0,1,2.51,1.82,6.54,6.54,0,0,1,1,3.12,10,10,0,0,1-6.92,9.8,6.55,6.55,0,0,1-3.26.14,3.93,3.93,0,0,1-2.56-1.74A5.16,5.16,0,0,0,155.64,236.37Z"/><path class="cls-1" d="M344,244a93.51,93.51,0,0,1,19,56.72,114.11,114.11,0,0,1-6.33,35.68l16,27.33c10.31-2.66,47.25-14.33,47.25-14.33l41-34.5,35.42-36.5L437,256.06s-19.28-15-25.91-24.87c2.86,11.65.94,23.39-9.5,30.75a28,28,0,0,1-16.33,5c-12.06,0-25-6.85-33.65-19.07-12.8-18.15-11.2-41.39,3.56-51.8,7.48-5.28,16.33-6,25.59-2.13a46,46,0,0,1,13.57,9.1c-4.19-8-7.17-18.55-10.66-27-2.3-5.47-3.45-20.63-5.67-29-6.24,9.63-26.58,43.83-26.58,43.83l-38.12,29.25S336.36,233.8,344,244Zm28.88,41.6c.28,0,28.16-4.89,43-25.66l7.2-6.54,3.74,10,5.16,27.74,32.1-.73-2.78,4c-10.91,15.81-46.64,42.21-71.69,49.78l-6.4,6.94-14.38-70.56Z"/><polygon class="cls-1" points="217.88 169.94 224.25 174.56 221.36 168.36 217.88 169.94"/><path class="cls-1" d="M346.74,269.48a37.29,37.29,0,0,0-8.42-8.13A79.61,79.61,0,0,1,349,301.42a80.32,80.32,0,0,1-160.34,7,41.41,41.41,0,0,1-3.39-5c-.7-1.19-1.34-2.41-1.92-3.65,0,.29,0,.59,0,.88a85.33,85.33,0,0,0,170.66,0A84.11,84.11,0,0,0,349.63,274,37.5,37.5,0,0,0,346.74,269.48Z"/><path class="cls-1" d="M204.47,253.12a80.18,80.18,0,0,1,11.17-12,38.16,38.16,0,0,0-6.38,3A40.91,40.91,0,0,0,198.7,253a47.43,47.43,0,0,0-4.48,6.3,86,86,0,0,0-7.61,18.28,59,59,0,0,0,2.1,16.11A79.48,79.48,0,0,1,204.47,253.12Z"/><path class="cls-1" d="M423.17,263.89l-4.47.74C405,282.17,383.61,288.35,376.27,290l1.08,5.47C385,294,411.65,285.63,423.17,263.89Z"/><path class="cls-1" d="M385.41,336.12l.88,4.46.67-.73.67-.19c21.55-6.27,53.27-28.62,66.49-44l-19.94.45C431.43,300.87,415.37,326.53,385.41,336.12Z"/><path class="cls-1" d="M410.32,314.66l-2.05-8c-8.54,5.9-17.67,10.19-25.94,13.95l1.85,9.33A77.24,77.24,0,0,0,410.32,314.66Z"/><path class="cls-1" d="M404.34,291.25a79.25,79.25,0,0,1-25.87,9.88l3.05,15.4c9.53-4.37,18.14-8.69,25.69-14Z"/><path class="cls-1" d="M411.75,304.09l1.92,7.52a95.29,95.29,0,0,0,14-16.88l-1-5.46A74.73,74.73,0,0,1,411.75,304.09Z"/><path class="cls-1" d="M407.88,288.93l2.8,11a67.16,67.16,0,0,0,14.92-16.17l-2-10.86A58.48,58.48,0,0,1,407.88,288.93Z"/><path class="cls-1" d="M179.35,331.07a93.94,93.94,0,0,1-5-30.35c0-.37,0-.73,0-1.1.26-8.86,3.38-24.1,3.38-24.1l.38-1.37A93.68,93.68,0,0,1,193.29,244a95.75,95.75,0,0,1,33.92-27.65c-23-13.29-54.42-42.58-54.42-42.58s-11.64-16.2-15.72-23.42l-10.69,45c9.76-6.07,21-7.81,31-.73,7.43,5.24,11.92,13.62,12.67,23.62a46.27,46.27,0,0,1-32.63,46.29,35.47,35.47,0,0,1-9.41,1.31,29.34,29.34,0,0,1-17.1-5.31c-13.79-9.72-12.68-27.14-5.28-41.87L100.6,245.93c-1.37,1.18-31.28,27.1-48,40.27,9,18,36,49.2,36,49.2s52.39,20.17,74.26,25.73L179,330.9Zm-31.67,20.79-21.76-12.72c-24.23-7.45-45.81-32.39-56.81-48.33l-2.86-4.14,32.36,1.46,5.15-27.69,9.65-5.31,1.29,1.8c13.88,19.37,21.63,20.87,42.33,24.9l5.63,1.1,6.13-5.17Z"/><path class="cls-1" d="M119.17,366.39l3.82-2.71,51.68,19.21,10.88-25.5s33.27,44,82.13,44A110.28,110.28,0,0,0,331,382c12.84-8.58,15.95-16.38,16-16.47l2.5-5.67L365.87,383l41-9.65,11.4-6.22c-11.31,30-18.48,38.32-42,58.39l92.75-.88L438.9,372.28l-7.63,7.66-18.6,29.33,28.27-.93-4.66-9.08-6.94,3.29L424,404.39,438.06,383l17.37,33.86L396,418.83l28.25-44.54.35-.35,70.79-71.14,36.6-35-9.22-2-7.52-1.63L446.8,244.5c-4.63-5.52-13.84-16.21-32.3-37.24L381.33,97.73l-31.46,60.45-10,20.55s-64.42,46.73-71.3,46.73-83.87-60.06-83.87-60.06l-8.25-19.45-10.49-31.88L153,94.84,123.16,196.16l-36.63,31.2L21,278.73l44.67,59.09,4.9,7.44,11.72,4.41,5.45,2.6-41.45,66,86.66-3.71-32.51-52.05L76.81,398.88l27.27.78-4.85-8.09-5.89.66-4.83-1L101.61,380l18.65,29.08-59.73-1.72,35-53.39,8.06,3.63.09-.06,38.69,62-99.56,4.27-5.17,8.24,85.76-1.4,12-6.27,12.31,8.7,12.5-8.37C139.06,406.23,119.17,366.39,119.17,366.39Zm-38.83-25-47.17-61s56-40.47,59.31-43.31l42.71-46.6,19.9-83.65,6.06,23.38c.07.25,17.86,39.5,17.86,39.5l67.2,47.73c.85.63,1.68,1.29,2.49,2l3,2.78a46.94,46.94,0,0,1,5,5.86,59,59,0,0,1,9,20.43,113.83,113.83,0,0,1,2.87,20c0-.34,0-.67,0-1a104,104,0,0,1,3.07-20.9c.24-.86.41-1.74.72-2.59l.88-2.55a50.42,50.42,0,0,1,2.06-5,22.11,22.11,0,0,1,1.25-2.44l1.34-2.41c.5-.77,1-1.53,1.55-2.29a23,23,0,0,1,1.64-2.24c4.62-5.83,11.53-9.63,18-13.09l47-30.57,25.25-45.75,8.25-23.58,3,14c.07.29,23.33,80,23.33,80l36,42.33,78.33,18.67-21.83,17-26.83,31.3-49,42-53.83,15.83-13-15.67-5.33-10.17C333.92,376.54,302.74,395,268.67,395a94.42,94.42,0,0,1-83.41-50.31l-11.34,25.78-8,1.5C138.86,365.76,80.33,341.39,80.33,341.39Z"/><path class="cls-1" d="M126.1,299a114,114,0,0,0,25.83,16.23l4.21-16.39a93,93,0,0,1-26.18-9Z"/><path class="cls-1" d="M111.94,261.64l-2.28,1.25c11.95,22.45,40.26,29,47.91,30.34l1.52-5.9-3-.59C135.82,282.8,126.24,280.94,111.94,261.64Z"/><circle class="cls-1" cx="270.17" cy="210.89" r="2.5"/><path class="cls-1" d="M405.86,381.33,361,393.74l-8.6-18.19c-9.83,11-35.56,32.84-84.7,32.84-41.46,0-67.94-27.33-79.5-39.62l-8.53,21.31-52.17-16.86A158.54,158.54,0,0,0,349.73,437v-.1h.16A160.57,160.57,0,0,0,405.86,381.33Zm-54.53,6.06-1,16.33-9.67-8.67Zm-31.67,18.67-3.67,17-13.67-10.33Zm-42.83,9.4-9.6,14.5-9-14.6Zm-40.73-4.88-11.7,9.71-3.88-16.69Zm-45.43-27.52,10,10.67-11.33,6.67ZM143,385.39l23.67,7.67,2,20.33Zm46.86,41.9,13.6-10.6,5.54,23Zm41,17.46,14-14,13.49,19.09ZM282,450.67l9.35-18,18.33,13.43Zm50-11.95,5-19.33,10,10.67Zm22.78-10-20.18-21.86-12.32,37.62-34.55-23.71-19.65,34.49L246,418.62l-26.09,26.09-12.27-40.23-26.57,17.94-3-23.13,2.89-6.13,4.31,19.2L211,395l11.73,38.44,24.58-22.58,20.6,34L285.61,412l33.45,23,12-36.71,20.82,18.47,3.89-15.49,5.22-3.53ZM370,398.06l19-5-24.67,24.67Z"/><path class="cls-1" d="M461.49,363.7l-12-2.11-6.71,6.74L478.26,430l-108.68,1q-1.14.87-2.29,1.73Q364.2,435,361,437.16l136.63,3.18-41.19-64.23Z"/><path class="cls-1" d="M120.73,311.72a74,74,0,0,0,28,15.88l2.18-8.47a117.14,117.14,0,0,1-26.43-16.32Z"/><path class="cls-1" d="M136.3,253.09c5.44,3.84,12.41,4.85,19.64,2.87a36.56,36.56,0,0,0,25.65-36.38c-.55-7.47-3.86-13.7-9.29-17.53a16.91,16.91,0,0,0-9.92-3.2c-9.4,0-19,7.47-25.41,16.5C128.29,227.63,124.39,244.69,136.3,253.09Zm6.82-33.36c7.82-11.09,20.73-15.5,28.78-9.83s8.23,19.31.41,30.41c-5.5,7.81-13.53,12.3-20.61,12.3a14,14,0,0,1-8.17-2.48c-4-2.81-6.18-7.57-6.19-13.42A30,30,0,0,1,143.12,219.73Z"/><path class="cls-1" d="M117.61,308.82l3.66-8.69a148.59,148.59,0,0,1-16.67-16.91l-1.4,7.54A92,92,0,0,0,117.61,308.82Z"/><path class="cls-1" d="M97.23,293.07l-20.77-.94c13.43,15.67,42.09,41.54,63.45,47.76l3.75,3.5,2-3.8,1.51-5.87C116.43,324.77,100.32,298.55,97.23,293.07Z"/><polygon class="cls-2" points="351.33 387.39 340.67 395.06 350.33 403.73 351.33 387.39"/><path class="cls-1" d="M122.9,296.26l3.55-8.43a59.66,59.66,0,0,1-19.36-18l-1.54,8.26A146.75,146.75,0,0,0,122.9,296.26Z"/><polygon class="cls-2" points="332 438.73 347 430.06 337 419.39 332 438.73"/><polygon class="cls-2" points="319.67 406.06 302.33 412.73 316 423.06 319.67 406.06"/><polygon class="cls-2" points="370 398.06 364.33 417.73 389 393.06 370 398.06"/><polygon class="cls-2" points="276.83 415.46 258.26 415.37 267.23 429.96 276.83 415.46"/><polygon class="cls-2" points="281.98 450.67 309.66 446.13 291.34 432.7 281.98 450.67"/><polygon class="cls-2" points="230.85 444.75 258.37 449.89 244.88 430.8 230.85 444.75"/><polygon class="cls-2" points="236.1 410.58 220.51 403.6 224.4 420.29 236.1 410.58"/><polygon class="cls-2" points="190.67 383.06 189.33 400.39 200.67 393.73 190.67 383.06"/><polygon class="cls-2" points="143 385.39 168.67 413.39 166.67 393.06 143 385.39"/><polygon class="cls-2" points="189.86 427.3 209 439.73 203.46 416.7 189.86 427.3"/><polygon class="cls-2" points="351.89 416.74 331.07 398.27 319.06 434.99 285.61 412.03 267.92 444.88 247.32 410.83 222.75 433.4 211.02 394.97 185.25 412.36 180.95 393.16 178.05 399.29 181.08 422.42 207.65 404.48 219.92 444.71 246.01 418.62 268.08 455.24 287.72 420.76 322.27 444.46 334.59 406.85 354.78 428.71 361 397.73 355.78 401.25 351.89 416.74"/><path class="cls-2" d="M306.67,267.06a21.67,21.67,0,1,0,21.67,21.67A21.69,21.69,0,0,0,306.67,267.06Zm0,38.65a17,17,0,1,1,17-17A17,17,0,0,1,306.67,305.71Z"/><path class="cls-2" d="M228.67,268.73a20,20,0,1,0,20,20A20,20,0,0,0,228.67,268.73Zm0,35.68a15.68,15.68,0,1,1,15.68-15.68A15.69,15.69,0,0,1,228.67,304.4Z"/><path class="cls-2" d="M157,281.84c-20.7-4-28.45-5.53-42.33-24.9l-1.29-1.8-9.65,5.31-9.59,22.45-27.92,3.78,2.86,4.14c11,15.94,32.57,40.88,56.81,48.33l21.76,12.72,21.12-74.09-6.13,5.17Zm-49.93-12a59.66,59.66,0,0,0,19.36,18l-3.55,8.43a146.75,146.75,0,0,1-17.34-18.17Zm-2.49,13.4a148.59,148.59,0,0,0,16.67,16.91l-3.66,8.69a92,92,0,0,1-14.41-18.05Zm41.06,56.37-2,3.8-3.75-3.5c-21.36-6.22-50-32.08-63.45-47.76l20.77.94c3.08,5.48,19.2,31.69,49.94,40.64Zm3.08-12a74,74,0,0,1-28-15.88l3.75-8.91a117.14,117.14,0,0,0,26.43,16.32Zm3.19-12.4A114,114,0,0,1,126.1,299l3.86-9.16a93,93,0,0,0,26.18,9Zm5.64-22c-7.65-1.37-36-7.89-47.91-30.34l2.28-1.25c14.3,19.3,23.87,21.16,44.13,25.1l3,.59Z"/><path class="cls-2" d="M155.64,238.33a6.55,6.55,0,0,0,3.26-.14,10,10,0,0,0,6.92-9.8,6.54,6.54,0,0,0-1-3.12,3.93,3.93,0,0,0-2.51-1.82,5.17,5.17,0,0,1,.65,2.48,7.66,7.66,0,0,1-.32,2.23,13.78,13.78,0,0,1-2,4,13.64,13.64,0,0,1-3.09,3.18,7.61,7.61,0,0,1-2,1,5.16,5.16,0,0,1-2.56.21A3.93,3.93,0,0,0,155.64,238.33Z"/><path class="cls-2" d="M143.53,250.13a14,14,0,0,0,8.17,2.48c7.08,0,15.1-4.5,20.61-12.3,7.82-11.09,7.64-24.73-.41-30.41s-21-1.27-28.78,9.83a30,30,0,0,0-5.78,17C137.35,242.56,139.55,247.33,143.53,250.13Zm6.17-25.77c3.25-4.62,7.92-7.31,11.94-7.31a7.35,7.35,0,0,1,4.3,1.3c4.42,3.12,4.33,10.88-.21,17.31s-11.82,9.13-16.24,6c-2.09-1.47-3.24-4-3.25-7.24A17.79,17.79,0,0,1,149.7,224.37Z"/><polygon class="cls-2" points="269 172.06 271.6 157.07 289.25 142.51 327.08 131.41 274.28 50.69 212.05 136.57 301.97 120.16 295.42 113.37 273.14 79.13 239.01 119.56 277.67 111.64 273.47 105.46 273.42 105.47 272.79 101.14 270.92 98.89 266.95 106.78 257.32 108.72 272.41 90.85 288.46 115.51 227.95 126.55 274 63.01 312.92 126.71 283.08 139.27 264.74 152.71 266 175.39 269 172.06"/><circle class="cls-2" cx="273.17" cy="193.89" r="3"/><circle class="cls-2" cx="265.17" cy="198.89" r="2.17"/><path class="cls-2" d="M258.67,184.89a5.5,5.5,0,1,0,5.5-5.5A5.51,5.51,0,0,0,258.67,184.89Zm5.5-2.5a2.5,2.5,0,1,1-2.5,2.5A2.5,2.5,0,0,1,264.17,182.39Z"/><path class="cls-2" d="M377.61,237.37a7.62,7.62,0,0,1-2-1,13.63,13.63,0,0,1-3.09-3.18,13.78,13.78,0,0,1-2-4,7.67,7.67,0,0,1-.32-2.23,5.17,5.17,0,0,1,.65-2.48,3.93,3.93,0,0,0-2.51,1.82,6.54,6.54,0,0,0-1,3.12,10,10,0,0,0,6.92,9.8,6.55,6.55,0,0,0,3.26.14,3.93,3.93,0,0,0,2.56-1.74A5.16,5.16,0,0,1,377.61,237.37Z"/><path class="cls-2" d="M377.73,208.33c-5.7-1.81-11.18-1.15-15.42,1.83s-6.69,7.93-6.91,13.9a30.08,30.08,0,0,0,19.92,28.25,20.53,20.53,0,0,0,6.2,1,15.79,15.79,0,0,0,9.22-2.84c8.62-6.07,9.25-20.06,1.41-31.18A28.62,28.62,0,0,0,377.73,208.33Zm7.39,34.18a9.78,9.78,0,0,1-8.77,1,18.66,18.66,0,0,1-12.27-17.41,9.79,9.79,0,0,1,3.87-7.93,8.81,8.81,0,0,1,5.15-1.57,12,12,0,0,1,3.63.59,17.64,17.64,0,0,1,8.87,6.78C390.31,230.66,390.11,239,385.12,242.51Z"/><path class="cls-2" d="M230.71,340.89a10.72,10.72,0,0,0,10.71,10.71h10.33v7.19c0,4.48,7.51,8.1,16.17,8.1,9,0,16.17-3.63,16.17-8.1V351.6h10.33a10.71,10.71,0,1,0,0-21.41h-53A10.72,10.72,0,0,0,230.71,340.89Zm53.38-5.79h10.33a5.79,5.79,0,0,1,0,11.59H284.09Zm-16.42,6,7.58,7.58-7.58,7.58-7.58-7.58Zm-15.92,5.63H241.42a5.79,5.79,0,0,1,0-11.59h10.33Z"/><path class="cls-2" d="M473.67,359.06l-8.33-3.33,89.39-91.8L450.67,234.06c-10.15-10.4-23.53-24.85-26.33-28C421.92,198.63,402,130.26,389,85.39l-9.33-17.67-15,42.67-19.22,45.34-10.44-7,14-18.33-58-80-22.33-34L190,133.73l10,14c-4.16,1.85-6.52,6.87-10.53,9.08l-9.8-52.41L150.33,63.73,113,191.06,0,275.39l62,80,13,2.33-56.67,84,105-2.67,12.6-4.66L148,443.73l16.33-7.67c28.62,23.16,65.54,32.31,104.14,32.31,29.6,0,59.06-4.71,84.32-19.43l161.88,3.78-50-77.67ZM269.23,142.7l9.32-6c-2-.07-8-.12-10.08-.12-21.24,0-31.89,0-51.15,7.74l-17.54-8.74,71.54-99.2L282,54.35l55.13,75.93-20.78,17.54-20.53-3.6L288,148.89l35.5,5.83,5.33,1.83L343,161.18l-5.67,12.43L328.43,170l9.22-6.71-3.16-1.41c-.76-.34-30.09-5.72-49.53-9.25l-5,4.09c16.08,2.47,44.11,5.46,49.6,7.51l-5.49,4-10.94-4.44-11.28,25.57,22.78-16.59,9.36,3.8-42.2,25.14c-1-2.1-1.92-4.11-2.56-5.68l19.91-33-7-.8c-5.44-.63-19.91-1.05-25.42-1.28l-.35,2.75-1.26,6.09c5,.06,14,.27,19,.68l-14.87,24.63.75,2c.11.31,1.65,4.41,4,9.17l-7.37,4.39a6.49,6.49,0,0,0-13,0l-9.46-6.28c1.86-3.92,3-7,3.12-7.3l.78-2.12-14.87-22.92c4.74-.65,13.41-1.15,18-1.53l-1-8.95c-2.94.24-13.93.77-25.33,2.63l-6.81,1.11,19.94,30.73c-.4,1-.89,2.11-1.45,3.32l-38.1-25.28,5.15-2.33,20.73,15.05-11.11-23.8-9.15,4.15-4.94-3.59c7.13-2.47,28.62-7.83,50.21-9.51l.55-3a313.55,313.55,0,0,0-55.73,10l-3.34,1.36,9.05,6.57-5.36,2.43-13.14-8.72-.07-.23C213.17,150.42,246.62,143.43,269.23,142.7Zm51,28.32-8.76,6.38,3.72-8.43Zm-47.59,39.87a2.5,2.5,0,1,1-2.5-2.5A2.5,2.5,0,0,1,272.67,210.89Zm-54.79-41,3.48-1.57,2.89,6.2ZM147.71,433.08l-12.31-8.7-12,6.27-85.76,1.4,5.17-8.24,99.56-4.27-38.69-62-.09.06L95.54,354l-35,53.39,59.73,1.72L101.61,380l-8.69,7.09-2,5.75,8.31-1.32,4.85,8.09-27.27-.78,23.63-36.35,32.51,52.05-86.66,3.71,41.45-66-5.45-2.6-11.72-4.41-4.9-7.44L21,278.73l65.53-51.36,36.63-31.2L153,94.84l13,19.22,10.49,31.88,8.25,19.45s77,60.06,83.87,60.06,71.3-46.73,71.3-46.73l10-20.55,31.46-60.45L414.5,207.27c18.47,21,27.67,31.72,32.3,37.24l68.4,19.71,7.52,1.63,9.22,2-36.6,35-70.79,71.14-.35.35L396,418.83l59.48-1.95L438.06,383,424,404.39l5.33-1.83,6.94-3.29,4.66,9.08-28.27.93,18.6-29.33,7.63-7.66L469,424.69l-92.75.88c23.47-20.08,30.64-28.43,42-58.39l-11.4,6.22-41,9.65L349.5,359.89l-2.5,5.67c-.06.09-3.17,7.89-16,16.47a110.28,110.28,0,0,1-63.33,19.36c-48.85,0-82.12-44-82.12-44l-10.87,25.5L123,363.69l-3.82,2.71s19.9,39.84,41,58.32Zm202.18,3.81h-.16v.1a158.54,158.54,0,0,1-222.26-63.77l52.17,16.86,8.53-21.31c11.56,12.3,38,39.63,79.5,39.63,49.15,0,74.88-21.85,84.7-32.84l8.6,18.19,44.89-12.41A160.57,160.57,0,0,1,349.89,436.9Zm147.76,3.44L361,437.16q3.17-2.14,6.27-4.42,1.15-.86,2.29-1.73l108.68-1-35.43-61.64,6.71-6.74,12,2.11-5,12.4Z"/><path class="cls-2" d="M389.7,344.26c25.05-7.58,60.78-34,71.69-49.78l2.78-4-28.5-4.56-8.76-22.45-3.74-10-7.2,6.54c-14.89,20.77-42.76,25.61-43,25.66l-4-5L383.3,351.2Zm44.48-48.13,19.94-.45c-13.22,15.36-44.94,37.71-66.49,44l-.67.19-.67.73-.88-4.46C415.37,326.53,431.43,300.87,434.19,296.13Zm-6.54-1.41a95.29,95.29,0,0,1-14,16.88l-1.92-7.52a74.73,74.73,0,0,0,14.88-14.83Zm-4.07-21.85,2,10.86a67.16,67.16,0,0,1-14.92,16.17l-2.8-11A58.48,58.48,0,0,0,423.58,272.87ZM376.27,290c7.35-1.67,28.78-7.85,42.43-25.38l4.47-.74C411.65,285.63,385,294,377.35,295.48Zm2.2,11.11a79.25,79.25,0,0,0,25.87-9.88l2.87,11.25c-7.55,5.34-16.16,9.67-25.69,14Zm29.8,5.49,2.05,8a77.24,77.24,0,0,1-26.15,15.24l-1.85-9.33C390.6,316.81,399.72,312.52,408.27,306.62Z"/><path class="cls-2" d="M173.92,370.52l11.34-25.78A94.42,94.42,0,0,0,268.67,395c34.07,0,65.25-18.5,81.83-45.65l5.33,10.17,13,15.67,53.83-15.83,49-42,26.83-31.3,21.83-17L442,250.39l-36-42.33s-23.27-79.71-23.33-80l-3-14-8.25,23.58-25.25,45.75-47,30.57c-6.47,3.46-13.38,7.26-18,13.09a23,23,0,0,0-1.64,2.24c-.52.77-1.06,1.52-1.55,2.29L276.59,234a22.11,22.11,0,0,0-1.25,2.44,50.42,50.42,0,0,0-2.06,5L272.4,244c-.31.84-.48,1.73-.72,2.59a104,104,0,0,0-3.07,20.9c0,.34,0,.67,0,1a113.83,113.83,0,0,0-2.87-20,59,59,0,0,0-9-20.43,46.94,46.94,0,0,0-5-5.86l-3-2.78c-.81-.68-1.64-1.34-2.49-2L179,169.73s-17.79-39.26-17.86-39.5l-6.06-23.38-19.9,83.65-42.71,46.6c-3.28,2.84-59.31,43.31-59.31,43.31l47.17,61s58.52,24.37,85.58,30.63ZM268.67,386a85.43,85.43,0,0,1-85.33-85.33c0-.3,0-.59,0-.88.59,1.24,1.22,2.46,1.92,3.65a41.41,41.41,0,0,0,3.39,5,80.32,80.32,0,0,0,160.34-7,79.61,79.61,0,0,0-10.69-40.07A36.6,36.6,0,0,1,349.63,274,84.11,84.11,0,0,1,354,300.71,85.43,85.43,0,0,1,268.67,386ZM186.61,277.58a86,86,0,0,1,7.61-18.28,47.43,47.43,0,0,1,4.48-6.3,40.91,40.91,0,0,1,10.56-8.91,38.16,38.16,0,0,1,6.38-3,79.79,79.79,0,0,0-26.93,52.57A59,59,0,0,1,186.61,277.58Zm147.67-22.5c-.47-.66-.93-1.31-1.42-2a80,80,0,0,0-9.2-10.21,38.62,38.62,0,0,1,4.38,2.16A41,41,0,0,1,338.7,254a46.88,46.88,0,0,1,4.39,6.08A44.89,44.89,0,0,0,334.28,255.08Zm70.29-17c.28,5.2-.82,12.42-7.7,17.27-11.38,8-29,2.75-39.2-11.75s-9.29-32.84,2.1-40.87a17.56,17.56,0,0,1,10.3-3.33c9.7,0,19.65,7.69,26.21,17C401.17,223.32,404.19,231.23,404.56,238.08Zm-53.15-47.19s20.35-34.2,26.58-43.83c2.22,8.37,3.36,23.53,5.67,29,3.49,8.45,6.47,19,10.66,27a46,46,0,0,0-13.57-9.1c-9.26-3.88-18.11-3.14-25.59,2.13-14.76,10.41-16.36,33.64-3.56,51.8C360.22,260.11,373.2,267,385.26,267a28,28,0,0,0,16.33-5c10.44-7.36,12.36-19.1,9.5-30.75C417.72,241,437,256.06,437,256.06l59.33,22.33-35.42,36.5-41,34.5S383,361.07,372.67,363.73l-16-27.33A114.11,114.11,0,0,0,363,300.71,93.51,93.51,0,0,0,344,244c-7.68-10.19-30.75-23.86-30.75-23.86Zm-26.58,45.72a44.34,44.34,0,0,0-9.36-1.81c-.72-.06-1.45-.1-2.17-.12a80.26,80.26,0,0,0-20.22-9.8,52.25,52.25,0,0,1,6.63-3.66m-33.88,73.49a35,35,0,0,0,1.76,6.85,32.31,32.31,0,0,0,7.65,11.86A35.26,35.26,0,0,0,287,321a37.34,37.34,0,0,0,13.58,2.62,35.21,35.21,0,0,0,13.53-2.51,29.78,29.78,0,0,0,11.19-7.87,29.32,29.32,0,0,0,6.2-11.95,34.87,34.87,0,0,0,1-6.57,47.41,47.41,0,0,0-.14-6.58,41.46,41.46,0,0,1-2.32,12.7,28,28,0,0,1-6.7,10.56,26.79,26.79,0,0,1-10.49,6.36,32.44,32.44,0,0,1-12.15,1.61,34.58,34.58,0,0,1-6.08-.89,34.11,34.11,0,0,1-5.81-1.89,30.3,30.3,0,0,1-9.94-6.77,27.66,27.66,0,0,1-6.31-10,29.65,29.65,0,0,1-1.43-5.82c-.15-1-.23-2-.29-3l0-1.51a43.7,43.7,0,0,1-.29-6.62,58.11,58.11,0,0,1,6.61-25.85c2.33-4.36,6.34-7.58,10.36-10.31a38.55,38.55,0,0,1,13.18-5.74,37.67,37.67,0,0,1,13.63-.57,77.26,77.26,0,0,1,13,12.42,52.13,52.13,0,0,0-23.49-.55,36.55,36.55,0,0,0-11.6,4.56,22.52,22.52,0,0,0-4.8,3.95,17.16,17.16,0,0,0-3.24,5.24,17,17,0,0,1,3.51-5,22,22,0,0,1,4.91-3.56,35.44,35.44,0,0,1,11.49-3.73,50,50,0,0,1,23.77,2.3q1.4.49,2.76,1.08a76.28,76.28,0,1,1-137.35,56.28c.7.63,1.42,1.23,2.17,1.8a37.9,37.9,0,0,0,13.77,6.62,42.9,42.9,0,0,0,29.13-3.17,32.11,32.11,0,0,0,11.38-9.15,23,23,0,0,0,3.43-6.42,20.54,20.54,0,0,0,1-7.12,20.25,20.25,0,0,1-1.55,6.92,22.13,22.13,0,0,1-3.77,5.91,30.44,30.44,0,0,1-11.44,7.81,39.55,39.55,0,0,1-26.94.9,32.36,32.36,0,0,1-18.11-15c0-.35,0-.69,0-1a76.94,76.94,0,0,1,32.33-62.31,37.17,37.17,0,0,1,11.75.8,37.86,37.86,0,0,1,13.06,5.79A39.89,39.89,0,0,1,259.68,256a46,46,0,0,1,5.24,10.38,29.18,29.18,0,0,0-3.5-4.43,32.07,32.07,0,0,0-11.74-7.73A35.7,35.7,0,0,0,211.52,263a31.25,31.25,0,0,0-6.69,11.65,34.62,34.62,0,0,0-1.36,6.51,41.68,41.68,0,0,0-.14,6.58,39.09,39.09,0,0,1,2.88-12.58,30.19,30.19,0,0,1,7.18-10.32,32.93,32.93,0,0,1,34.55-6.23,27.15,27.15,0,0,1,9.75,6.82,28.42,28.42,0,0,1,5.93,10.29,35.35,35.35,0,0,1,1.37,5.91,46.35,46.35,0,0,1,.4,6.14c0,.55,0,1.08,0,1.65l.07,1.76C265.55,292.38,265.65,293.55,265.84,294.72Zm-21.59-69.83a80.12,80.12,0,0,0-18.66,8.78c-1.29,0-2.59,0-3.88.14a43.46,43.46,0,0,0-7.43,1.29,84.57,84.57,0,0,1,23.51-13.94A46,46,0,0,1,244.24,224.88ZM137,215.34c6.37-9,16-16.5,25.41-16.5a16.91,16.91,0,0,1,9.92,3.2c5.44,3.83,8.74,10.06,9.29,17.53A36.56,36.56,0,0,1,155.94,256c-7.22,2-14.2,1-19.64-2.87C124.39,244.69,128.29,227.63,137,215.34Zm-48.29,120s-27-31.22-36-49.2c16.68-13.16,46.6-39.08,48-40.27l25.07-27.32c-7.4,14.74-8.51,32.15,5.28,41.87a29.34,29.34,0,0,0,17.1,5.31,35.47,35.47,0,0,0,9.41-1.31,46.27,46.27,0,0,0,32.63-46.29c-.74-10-5.24-18.38-12.67-23.62-10-7.08-21.27-5.34-31,.73l10.69-45c4.08,7.22,15.72,23.42,15.72,23.42s31.43,29.29,54.42,42.58A95.75,95.75,0,0,0,193.29,244a93.68,93.68,0,0,0-15.18,30.15l-.38,1.37s-3.13,15.24-3.38,24.1c0,.37,0,.73,0,1.1a93.94,93.94,0,0,0,5,30.35l-.31-.16-16.11,30.22C141.06,355.56,88.67,335.39,88.67,335.39Z"/><path class="cls-1" d="M228.65,279.1a9.8,9.8,0,1,0,9.8,9.8A9.81,9.81,0,0,0,228.65,279.1Z"/><path class="cls-2" d="M228.65,276.16a12.74,12.74,0,1,0,12.74,12.74A12.75,12.75,0,0,0,228.65,276.16Zm0,22.53a9.8,9.8,0,1,1,9.8-9.8A9.81,9.81,0,0,1,228.65,298.69Z"/><path class="cls-1" d="M306.67,271.74a17,17,0,1,0,17,17A17,17,0,0,0,306.67,271.74ZM306.18,303a14.11,14.11,0,1,1,14.11-14.11A14.13,14.13,0,0,1,306.18,303Z"/><path class="cls-2" d="M306.18,274.78a14.11,14.11,0,1,0,14.11,14.11A14.13,14.13,0,0,0,306.18,274.78Zm0,25A10.86,10.86,0,1,1,317,288.89,10.87,10.87,0,0,1,306.18,299.75Z"/></g><path class="cls-2" d="M132,486.39a77.63,77.63,0,0,0,10.08-.66c3.36-.45,6.72-1.05,10.08-1.55l3.44-.51-1.52,3.83c-.83,2.08-1.69,4.15-2.63,6.17a24.78,24.78,0,0,1-1.66,2.88c-.58.94-1.13,1.91-1.69,2.87l-.86,1.5h-15c-.47,0-.83,0-1.23,0a7.07,7.07,0,0,0-2,.43,3.46,3.46,0,0,0-2.18,2.31,8.92,8.92,0,0,0-.37,2.11,13.66,13.66,0,0,0,.08,2.35,4.38,4.38,0,0,0,1.55,3.06,6.72,6.72,0,0,0,3.86,1h5.89l-3,3V497.8h17.52v31.93H133.82c-.87,0-1.69,0-2.65,0s-1.86,0-2.81-.16a23.08,23.08,0,0,1-11.12-3.73,16,16,0,0,1-4.39-4.37A19.8,19.8,0,0,1,110.2,516a33.65,33.65,0,0,1-1.26-11.27,18.11,18.11,0,0,1,3.48-10.88,16.42,16.42,0,0,1,1.9-2.25,17,17,0,0,1,2.28-1.8,16.75,16.75,0,0,1,5.06-2.25A39.67,39.67,0,0,1,132,486.39Zm0,0a19.81,19.81,0,0,0-9.86,2.38,7,7,0,0,0-1,.69c-.33.25-.67.47-1,.74a12.47,12.47,0,0,0-1.65,1.74,13.78,13.78,0,0,0-1.29,1.93l-.47,1a6.58,6.58,0,0,0-.41,1.06,21.6,21.6,0,0,0-.95,4.41c0,.78-.12,1.52-.2,2.29s-.26,1.52-.26,2.33a27.59,27.59,0,0,0,1,9.18,13.81,13.81,0,0,0,1.85,3.82,10,10,0,0,0,2.89,2.87,17.19,17.19,0,0,0,8.29,2.69,23.17,23.17,0,0,0,2.35.14c.76,0,1.67,0,2.52,0h15.51l-3,3V500.8l3,3H137.81l3-3V518.2h-8.94a16.2,16.2,0,0,1-3.62-.43,10.35,10.35,0,0,1-3.73-1.7,9.3,9.3,0,0,1-2.78-3.29,12.28,12.28,0,0,1-1.16-3.76,19.44,19.44,0,0,1-.13-3.55,14.76,14.76,0,0,1,.68-3.69,9.85,9.85,0,0,1,2.15-3.62,9.61,9.61,0,0,1,3.54-2.35,13,13,0,0,1,3.72-.82c.58-.05,1.22-.06,1.73-.07h13.31l-2.6,1.5c.56-1,1.11-1.92,1.64-2.89a24.77,24.77,0,0,1,1.67-2.88c1.28-1.82,2.64-3.6,4-5.36l1.92,3.32c-3.36-.5-6.72-1.1-10.08-1.55A77.63,77.63,0,0,0,132,486.39Z"/><path class="cls-2" d="M152.22,509.44c0-1.92-.09-3.84-.28-5.76s-.49-3.84-.81-5.76l-1-5.76c-.31-1.92-.63-3.84-.83-5.76l1.74-1.54,1.22-1.41a15.56,15.56,0,0,1,2.88-.1c1,0,1.92.06,2.88.06h8.76v25.78c0,.18,0,.33,0,.44a6.08,6.08,0,0,0,0,.69,3.35,3.35,0,0,0,.27,1,1.18,1.18,0,0,0,.37.46,4.93,4.93,0,0,0,4.13,0,1.18,1.18,0,0,0,.37-.46,3.35,3.35,0,0,0,.27-1,6.08,6.08,0,0,0,0-.69c0-.1,0-.26,0-.44V483.39h17.52v22.79c0,3.16.16,6.93-.91,10.61a17.49,17.49,0,0,1-2.39,5.38,14.37,14.37,0,0,1-4.31,4.29,17.64,17.64,0,0,1-5.39,2.37,25.9,25.9,0,0,1-2.77.58c-.91.09-1.83.23-2.74.25s-1.8.07-2.71,0h-1.36c-.46,0-.92-.06-1.38-.12a17.3,17.3,0,0,1-5.33-1.83c-.42-.24-.84-.45-1.24-.72l-1.17-.84c-.38-.29-.72-.65-1.07-1a8.18,8.18,0,0,1-1-1,13.81,13.81,0,0,1-2.61-4.78,22.69,22.69,0,0,1-1-5A48.13,48.13,0,0,1,152.22,509.44Zm0,0a15.78,15.78,0,0,0,2.65,9.25,10,10,0,0,0,3.36,3,12.27,12.27,0,0,0,4,1.4c.68.15,1.42.19,2.11.28l2.17.1a21.8,21.8,0,0,0,4.44.19c.75,0,1.46-.13,2.19-.2a20,20,0,0,0,2.07-.44,11.65,11.65,0,0,0,3.63-1.58,8.42,8.42,0,0,0,2.64-2.63,11.52,11.52,0,0,0,1.59-3.62c.79-2.69.69-5.63.7-9V486.39l3,3H175.26l3-3v23.35a12,12,0,0,1-.1,1.33,9.26,9.26,0,0,1-.85,2.88,7.21,7.21,0,0,1-2.19,2.62,8,8,0,0,1-2.91,1.32,12.4,12.4,0,0,1-5.42,0,8,8,0,0,1-2.91-1.32,7.21,7.21,0,0,1-2.19-2.62,9.26,9.26,0,0,1-.85-2.88,12,12,0,0,1-.1-1.33V486.39l3,3H158c-1,0-1.92,0-2.88.06a15.56,15.56,0,0,1-2.88-.1l3-3c-.2,1.92-.52,3.84-.83,5.76l-1,5.76c-.33,1.92-.64,3.84-.81,5.76S152.22,507.52,152.22,509.44Z"/><path class="cls-2" d="M201.19,526.72l-5.2,1.36c-1.93.52-4.08,1-6.33,1.38l-2.17.38-.57-3.12a8.49,8.49,0,0,1-.32-2.52,24.79,24.79,0,0,0,.06-2.52V483.39h17.52v3c0,7.07-.07,14.21-.23,21.31l-.13,5.32a15.47,15.47,0,0,1-.66,5c-.33,1.55-.66,3.06-1,4.51S201.52,525.37,201.19,526.72Zm0,0-1-5.85-1-5.57c-.3-1.8-.86-3.68-.66-5.12l-.13-4.76c-.16-6.34-.23-12.65-.23-19l3,3H189.67l3-3v35.29a24.72,24.72,0,0,0,.06,2.52,8.5,8.5,0,0,1-.32,2.52L189.67,524c1.6.39,3.28.86,5.2,1.38S198.88,526.33,201.19,526.72Z"/><path class="cls-2" d="M224.24,486.39a77.63,77.63,0,0,0,10.08-.66c3.36-.45,6.72-1.05,10.08-1.55l3.44-.51-1.52,3.83c-.83,2.08-1.69,4.15-2.63,6.17a24.78,24.78,0,0,1-1.66,2.88c-.58.94-1.13,1.91-1.69,2.87l-.86,1.5h-15c-.47,0-.83,0-1.23,0a7.07,7.07,0,0,0-2,.43A3.46,3.46,0,0,0,219,503.7a8.92,8.92,0,0,0-.37,2.11,13.65,13.65,0,0,0,.08,2.35,4.38,4.38,0,0,0,1.55,3.06,6.72,6.72,0,0,0,3.86,1H230l-3,3V497.8h17.52v31.93H226c-.87,0-1.69,0-2.65,0s-1.86,0-2.81-.16a23.08,23.08,0,0,1-11.12-3.73,16,16,0,0,1-4.39-4.37,19.8,19.8,0,0,1-2.65-5.44,33.66,33.66,0,0,1-1.26-11.27,18.11,18.11,0,0,1,3.48-10.88,16.41,16.41,0,0,1,1.9-2.25,17,17,0,0,1,2.28-1.8,16.75,16.75,0,0,1,5.06-2.25A39.67,39.67,0,0,1,224.24,486.39Zm0,0a19.81,19.81,0,0,0-9.86,2.38,7,7,0,0,0-1,.69c-.33.25-.67.47-1,.74a12.46,12.46,0,0,0-1.65,1.74,13.78,13.78,0,0,0-1.29,1.93l-.47,1a6.6,6.6,0,0,0-.41,1.06,21.6,21.6,0,0,0-.95,4.41c0,.78-.12,1.52-.2,2.29s-.26,1.52-.26,2.33a27.59,27.59,0,0,0,1,9.18A13.81,13.81,0,0,0,210,518a10,10,0,0,0,2.89,2.87,17.19,17.19,0,0,0,8.29,2.69,23.17,23.17,0,0,0,2.35.14c.76,0,1.67,0,2.52,0h15.51l-3,3V500.8l3,3H230l3-3V518.2h-8.94a16.2,16.2,0,0,1-3.62-.43,10.35,10.35,0,0,1-3.73-1.7,9.3,9.3,0,0,1-2.78-3.29,12.28,12.28,0,0,1-1.16-3.76,19.45,19.45,0,0,1-.13-3.55,14.77,14.77,0,0,1,.68-3.69,9.85,9.85,0,0,1,2.15-3.62,9.61,9.61,0,0,1,3.54-2.35,13,13,0,0,1,3.72-.82c.58-.05,1.22-.06,1.73-.07h13.31l-2.6,1.5c.56-1,1.11-1.92,1.64-2.89a24.78,24.78,0,0,1,1.67-2.88c1.28-1.82,2.64-3.6,4-5.36l1.92,3.32c-3.36-.5-6.72-1.1-10.08-1.55A77.63,77.63,0,0,0,224.24,486.39Z"/><path class="cls-2" d="M255.93,507.71c.15,3.55.54,7,1,10.14l.66,4.56c.22,1.47.38,2.89.54,4.31l.22,1.94-2.39.24-5.76.57-2.88.28a22,22,0,0,1-2.88,0l-3.13-.14.08-2.91c.1-3.78,0-7.57.05-11.35V474.44l5,4.68,25.93,24.08-5,2.2v-22h17.52v48.4l-1-.17-4,.37c-1-.92-2,.13-3-.75-.5-.44-1-.87-1.47-1.36s-.9-1-1.34-1.56l-5.48-6.59c-1.89-2.25-3.88-4.62-6-7S258.24,510.06,255.93,507.71Zm0,0c2,1.66,4.11,3.31,6.33,5s4.55,3.33,7,5.09l7.49,5.45c.63.47,1.28.93,1.9,1.45s1.2,1.08,1.77,1.65c1.16,1.12,2.35,2.18,3.51,3.27l-5,2.2v-45.4l3,3H270.33l3-3v25.89l-5-4.68-25.93-24.08,5-2.2v34.05c0,3.78-.05,7.57.05,11.35l-3.05-3.05a22,22,0,0,1,2.88,0l2.88.28,5.76.57-2.17,2.17c.16-1.75.32-3.49.54-5.19l.66-4.95C255.39,513.38,255.77,510.49,255.93,507.71Z"/><path class="cls-2" d="M284.73,506.56c0-2.73-.14-5.44-.05-8.41a15.1,15.1,0,0,1,3-8.86,19.8,19.8,0,0,1,8.34-4.72,34.51,34.51,0,0,1,17.86,0,18.15,18.15,0,0,1,13.06,13.06,34.51,34.51,0,0,1,0,17.86,18.15,18.15,0,0,1-13.06,13.06,34.51,34.51,0,0,1-17.86,0,19.31,19.31,0,0,1-8.32-4.74,15.38,15.38,0,0,1-2.93-8.85C284.61,512,284.77,509.29,284.73,506.56Zm0,0a15,15,0,0,0,2.12,7.77,17.17,17.17,0,0,0,5,5.23c3.06,3.06,8,4.16,13,4.16s9.95-1.1,13-4.16,4.16-8,4.16-13-1.1-9.95-4.16-13-8-4.16-13-4.16-10,1.08-13,4.18a17.86,17.86,0,0,0-5,5.22A14.71,14.71,0,0,0,284.73,506.56Z"/><path class="cls-2" d="M304.9,497.92a4,4,0,0,0-3.14,1.56,6,6,0,0,0-1.2,2.75c-.87.75-1.3,2.4-1.3,4.34a9.76,9.76,0,0,0,.33,2.62,3.53,3.53,0,0,0,2.7,2.7,10.56,10.56,0,0,0,5.24,0,3.53,3.53,0,0,0,2.7-2.7,10.56,10.56,0,0,0,0-5.24,4.51,4.51,0,0,0-.41-1,1.69,1.69,0,0,0-.27-.39c-.13-.1-.28-.15-.28-.35a5.67,5.67,0,0,0-1.21-2.76A4.08,4.08,0,0,0,304.9,497.92Zm0,0a16.29,16.29,0,0,0,3.78-.61,6.55,6.55,0,0,1,4.83.65,9.9,9.9,0,0,1,2.47,4.29,16.49,16.49,0,0,1,0,8.62,9.49,9.49,0,0,1-6.76,6.76,16.49,16.49,0,0,1-8.62,0,9.49,9.49,0,0,1-6.76-6.76,16.49,16.49,0,0,1,0-8.62,10.39,10.39,0,0,1,2.44-4.31,6.39,6.39,0,0,1,4.84-.67A15.58,15.58,0,0,0,304.9,497.92Z"/><path class="cls-2" d="M327.95,486.39c1.63-.28,3.39-.67,5.33-1s4-.79,6.19-1.08l1.75-.24.37,2.36.57,3.6a19,19,0,0,1,.38,3.6c-.1,1.2-.07,2.4-.07,3.6v18l-3-3h22.36l.4,4.5-6.65,11.52-.87,1.5H324.95v-3c0-7.07.07-14.21.23-21.31a24.62,24.62,0,0,1,0-2.68l.41-2.48.8-4.82Zm0,0c.49,3.85,1,7.54,1.53,11.12l.8,5.26.41,2.57a19.5,19.5,0,0,1,0,2.37c.16,6.34.23,12.65.23,19l-3-3h25l-2.6,1.5L357,513.7l2.6,4.5H336.47v-21c0-1.2,0-2.4-.07-3.6a19,19,0,0,1,.38-3.6l.57-3.6,2.12,2.12c-1.67-.3-3.42-.71-5.33-1.08S330.16,486.67,327.95,486.39Z"/><path class="cls-2" d="M400,486.39c-.83,1.76-1.64,3.67-2.45,5.76s-1.76,4.33-2.77,6.59l-.31.69-1.13.14c-1.85.23-3.69.4-5.54.59l-5.54.57c-.92.09-1.85.21-2.77.25s-1.85,0-2.77,0c-1.85,0-3.69,0-5.54,0l3-3v2.88l-3-3h25.68l-2.6,4.5-6.65,11.52-.87,1.5H371.16l3-3v2.88l-3-3h17.35l-2.6,4.5-6.66,11.52-.87,1.5H356.64V483.4h3c3.58,0,7.18,0,10.81.08.91,0,1.83,0,2.74,0s1.77.16,2.65.26l5.15.63,9.81,1.17C394,485.87,397,486.17,400,486.39Zm0,0c-3.75.22-7.43.52-11,.86s-7,.76-10.36,1.17l-4.93.63c-.81.1-1.62.24-2.39.26s-1.53,0-2.31,0c-3.1,0-6.22.08-9.36.08l3-3v40.33l-3-3h17l-2.6,1.5,6.66-11.52,2.6,4.5H368.16v-8.88H385l-2.6,1.5L389,499.3l2.6,4.5H368.16v-8.87l3,0c1.85,0,3.69,0,5.54,0,.92,0,1.85-.09,2.77,0s1.85.16,2.77.25l5.54.57c1.85.2,3.69.37,5.54.59l-1.43.83c1.21-1.59,2.51-3.18,3.88-4.93S398.58,488.47,400,486.39Z"/><path class="cls-2" d="M400.89,526.72,397,521.51c-1.34-1.79-2.68-3.66-4.06-5.57L391.57,514l2.66-.29c4.71-.51,9.42-.88,14.13-1.33,1.18-.1,2.35-.24,3.53-.27s2.35.07,3.53.07h6.18a1.26,1.26,0,0,0-.63.2,2,2,0,0,0-.89,1.1c-.06.31,0,.21,0,.33a1.75,1.75,0,0,0,.55,1,1.71,1.71,0,0,0,.95.48H411.27a33.58,33.58,0,0,1-3.84-.15,18.77,18.77,0,0,1-4.11-.87,14.47,14.47,0,0,1-4-2.13,13.12,13.12,0,0,1-3-3.5,17.56,17.56,0,0,1-2.15-8.16,21.64,21.64,0,0,1,1.05-8.11,13.61,13.61,0,0,1,2.19-4,12.5,12.5,0,0,1,3.54-3,15.74,15.74,0,0,1,4.1-1.57,22.61,22.61,0,0,1,4.06-.5l28.36,0h5.2l-2.6,4.51-6.65,11.52-.87,1.5H410.16a1.7,1.7,0,0,0,.86-.41,1.86,1.86,0,0,0,.6-1,.52.52,0,0,0,0-.24,1.7,1.7,0,0,0-.41-.86,1.86,1.86,0,0,0-1-.6l-.16,0h10.43c.53,0,1,0,1.62,0a19.58,19.58,0,0,1,7.2,1.38,12.63,12.63,0,0,1,6,5.24,17.21,17.21,0,0,1,2.1,7.21,24.62,24.62,0,0,1-.42,7.1,16.31,16.31,0,0,1-1.29,3.63,12.07,12.07,0,0,1-2.34,3.34,11.24,11.24,0,0,1-3.45,2.13,17,17,0,0,1-1.83.61c-.61.12-1.22.27-1.82.34a29.41,29.41,0,0,1-6.84-.1c-2.17-.18-4.31-.43-6.41-.64Zm0,0,12.74-1.33c2-.22,4.07-.46,6-.64a24.69,24.69,0,0,0,5.57-.93,8.58,8.58,0,0,0,3.87-2.48,7.44,7.44,0,0,0,1.28-1.69,9.24,9.24,0,0,0,.8-2.22,18.82,18.82,0,0,0,.3-5.29,11.35,11.35,0,0,0-1.29-4.67c-2.89-5.35-11.87-3.14-21.21-3.79a4.19,4.19,0,0,1-2.31-1.34,4.32,4.32,0,0,1-1-2.28,5.38,5.38,0,0,1,.07-1.79,4.19,4.19,0,0,1,1.34-2.31,4.32,4.32,0,0,1,2.28-1l.45,0h21l-2.6,1.5,6.65-11.52,2.6,4.5-28.14,0a16.7,16.7,0,0,0-2.94.35,9.79,9.79,0,0,0-2.48.94,6.65,6.65,0,0,0-3,3.74,15.85,15.85,0,0,0-.7,5.82,11.72,11.72,0,0,0,1.33,5.39,7.14,7.14,0,0,0,1.56,1.81,8.54,8.54,0,0,0,2.23,1.18,12.83,12.83,0,0,0,2.79.58,27.69,27.69,0,0,0,3.21.11h10.42c.16,0,.31,0,.49,0a4.32,4.32,0,0,1,2.55,1.14,4.13,4.13,0,0,1,.93,1.35,4.57,4.57,0,0,1,.33,1.23,5.2,5.2,0,0,1-.14,2.09,4.18,4.18,0,0,1-.66,1.35,4.08,4.08,0,0,1-1.26,1.12,4.7,4.7,0,0,1-2.33.58h-6.18c-1.18,0-2.35.09-3.53.07s-2.35-.17-3.53-.27c-4.71-.45-9.42-.82-14.13-1.33l1.28-2.22,2.6,5.95C399,522.47,399.93,524.56,400.89,526.72Z"/><path class="cls-2" d="M71.77,569.72l-3.88-5.21c-1.34-1.79-2.68-3.66-4.06-5.57L62.45,557l2.66-.29c4.71-.51,9.42-.88,14.13-1.33,1.18-.1,2.35-.24,3.53-.27s2.35.07,3.53.07h6.18a1.26,1.26,0,0,0-.63.2,2,2,0,0,0-.89,1.1c-.06.31,0,.21,0,.33a1.75,1.75,0,0,0,.55,1,1.71,1.71,0,0,0,.95.48H82.15a33.59,33.59,0,0,1-3.84-.15,18.77,18.77,0,0,1-4.11-.87,14.47,14.47,0,0,1-4-2.13,13.12,13.12,0,0,1-3-3.5A17.56,17.56,0,0,1,65,543.52a21.64,21.64,0,0,1,1.05-8.11,13.61,13.61,0,0,1,2.19-4,12.5,12.5,0,0,1,3.54-3,15.74,15.74,0,0,1,4.1-1.57,22.61,22.61,0,0,1,4.06-.5l28.36,0h5.2l-2.6,4.51-6.65,11.52-.87,1.5H81a1.7,1.7,0,0,0,.86-.41,1.86,1.86,0,0,0,.6-1,.53.53,0,0,0,0-.24,1.7,1.7,0,0,0-.41-.86,1.86,1.86,0,0,0-1-.6l-.16,0H91.4c.53,0,1,0,1.62,0a19.58,19.58,0,0,1,7.2,1.38,12.63,12.63,0,0,1,6,5.24,17.22,17.22,0,0,1,2.1,7.21,24.62,24.62,0,0,1-.42,7.1,16.3,16.3,0,0,1-1.29,3.63,12.06,12.06,0,0,1-2.34,3.34,11.24,11.24,0,0,1-3.45,2.13,17,17,0,0,1-1.83.61c-.61.12-1.22.27-1.82.34a29.41,29.41,0,0,1-6.84-.1c-2.17-.18-4.31-.43-6.41-.64Zm0,0,12.74-1.33c2-.22,4.07-.46,6-.64a24.69,24.69,0,0,0,5.57-.93,8.58,8.58,0,0,0,3.87-2.48,7.43,7.43,0,0,0,1.28-1.69,9.24,9.24,0,0,0,.8-2.22,18.82,18.82,0,0,0,.3-5.29,11.35,11.35,0,0,0-1.29-4.67c-2.89-5.35-11.87-3.14-21.21-3.79a4.19,4.19,0,0,1-2.31-1.34,4.32,4.32,0,0,1-1-2.28,5.38,5.38,0,0,1,.07-1.79A4.19,4.19,0,0,1,78,539a4.32,4.32,0,0,1,2.28-1l.45,0h21l-2.6,1.5,6.65-11.52,2.6,4.5-28.14,0a16.7,16.7,0,0,0-2.94.35,9.79,9.79,0,0,0-2.48.94,6.65,6.65,0,0,0-3,3.74,15.85,15.85,0,0,0-.7,5.82,11.72,11.72,0,0,0,1.33,5.39,7.14,7.14,0,0,0,1.56,1.81,8.54,8.54,0,0,0,2.23,1.18,12.83,12.83,0,0,0,2.79.58,27.69,27.69,0,0,0,3.21.11H92.57c.16,0,.31,0,.49,0a4.32,4.32,0,0,1,2.55,1.14,4.13,4.13,0,0,1,.93,1.35,4.58,4.58,0,0,1,.33,1.23,5.19,5.19,0,0,1-.14,2.09,4.18,4.18,0,0,1-.66,1.35,4.08,4.08,0,0,1-1.26,1.12,4.7,4.7,0,0,1-2.33.58H86.3c-1.18,0-2.35.09-3.53.07s-2.35-.17-3.53-.27c-4.71-.45-9.42-.82-14.13-1.33l1.28-2.22,2.6,5.95C69.87,565.47,70.8,567.56,71.77,569.72Z"/><path class="cls-2" d="M106.71,549.56c0-2.73-.14-5.44-.05-8.41a15.1,15.1,0,0,1,3-8.86,19.8,19.8,0,0,1,8.34-4.72,34.51,34.51,0,0,1,17.86,0,18.15,18.15,0,0,1,13.06,13.06,34.51,34.51,0,0,1,0,17.86,18.15,18.15,0,0,1-13.06,13.06,34.51,34.51,0,0,1-17.86,0,19.31,19.31,0,0,1-8.32-4.74A15.38,15.38,0,0,1,106.7,558C106.59,555,106.75,552.29,106.71,549.56Zm0,0a15,15,0,0,0,2.12,7.77,17.17,17.17,0,0,0,5,5.23c3.06,3.06,8,4.16,13,4.16s9.95-1.1,13-4.16,4.16-8,4.16-13-1.1-9.95-4.16-13-8-4.16-13-4.16-10,1.08-13,4.18a17.86,17.86,0,0,0-5,5.22A14.71,14.71,0,0,0,106.71,549.56Z"/><path class="cls-2" d="M126.88,540.92a4,4,0,0,0-3.14,1.56,6,6,0,0,0-1.2,2.75c-.87.75-1.3,2.4-1.3,4.34a9.77,9.77,0,0,0,.33,2.62,3.53,3.53,0,0,0,2.7,2.7,10.56,10.56,0,0,0,5.24,0,3.53,3.53,0,0,0,2.7-2.7,10.56,10.56,0,0,0,0-5.24,4.5,4.5,0,0,0-.41-1,1.69,1.69,0,0,0-.27-.39c-.13-.1-.28-.15-.28-.35a5.67,5.67,0,0,0-1.21-2.76A4.08,4.08,0,0,0,126.88,540.92Zm0,0a16.29,16.29,0,0,0,3.78-.61,6.55,6.55,0,0,1,4.83.65,9.9,9.9,0,0,1,2.47,4.29,16.49,16.49,0,0,1,0,8.62,9.49,9.49,0,0,1-6.76,6.76,16.49,16.49,0,0,1-8.62,0,9.49,9.49,0,0,1-6.76-6.76,16.49,16.49,0,0,1,0-8.62,10.39,10.39,0,0,1,2.44-4.31,6.39,6.39,0,0,1,4.84-.67A15.58,15.58,0,0,0,126.88,540.92Z"/><path class="cls-2" d="M149.93,552.44c0-1.92-.09-3.84-.28-5.76s-.49-3.84-.81-5.76l-1-5.76c-.31-1.92-.63-3.84-.83-5.76l-.26-2.54,3.22-.41a15.56,15.56,0,0,1,2.88-.1c1,0,1.92.06,2.88.06h8.76v25.78c0,.18,0,.33,0,.44a6.08,6.08,0,0,0,0,.69,3.35,3.35,0,0,0,.27,1,1.18,1.18,0,0,0,.37.46,4.93,4.93,0,0,0,4.13,0,1.18,1.18,0,0,0,.37-.46,3.35,3.35,0,0,0,.27-1,6.08,6.08,0,0,0,0-.69c0-.1,0-.26,0-.44V526.39H187.5v22.79c0,3.16.16,6.93-.91,10.61a17.49,17.49,0,0,1-2.39,5.38,14.37,14.37,0,0,1-4.31,4.29,17.64,17.64,0,0,1-5.39,2.37,25.9,25.9,0,0,1-2.77.58c-.91.09-1.83.23-2.74.25s-1.8.07-2.71,0h-1.36c-.46,0-.92-.06-1.38-.12a17.29,17.29,0,0,1-5.33-1.83c-.42-.24-.84-.45-1.24-.72l-1.17-.84c-.38-.29-.72-.65-1.07-1a8.18,8.18,0,0,1-1-1,13.81,13.81,0,0,1-2.61-4.78,22.68,22.68,0,0,1-1-5A48.13,48.13,0,0,1,149.93,552.44Zm0,0a15.78,15.78,0,0,0,2.65,9.25,10,10,0,0,0,3.36,3,12.27,12.27,0,0,0,4,1.4c.68.15,1.42.19,2.11.28l2.17.1a21.8,21.8,0,0,0,4.44.19c.75,0,1.46-.13,2.19-.2a20,20,0,0,0,2.07-.44,11.65,11.65,0,0,0,3.63-1.58,8.42,8.42,0,0,0,2.64-2.63,11.52,11.52,0,0,0,1.59-3.62c.79-2.69.69-5.63.7-9V529.39l3,3H173l3-3v23.35a12,12,0,0,1-.1,1.33A9.26,9.26,0,0,1,175,557a7.21,7.21,0,0,1-2.19,2.62,8,8,0,0,1-2.91,1.32,12.4,12.4,0,0,1-5.42,0,8,8,0,0,1-2.91-1.32A7.21,7.21,0,0,1,159.4,557a9.26,9.26,0,0,1-.85-2.88,12,12,0,0,1-.1-1.33V529.39l3,3h-5.76c-1,0-1.92,0-2.88.06a15.56,15.56,0,0,1-2.88-.1l3-3c-.2,1.92-.52,3.84-.83,5.76l-1,5.76c-.33,1.92-.64,3.84-.81,5.76S149.93,550.52,149.93,552.44Z"/><path class="cls-2" d="M198.9,550.71c.15,3.55.54,7,1,10.14l.66,4.56c.22,1.47.38,2.89.54,4.31l.22,1.94-2.39.24-5.76.57-2.88.28a22,22,0,0,1-2.88,0l-3.13-.14.08-2.91c.1-3.78,0-7.57.05-11.35V517.44l5,4.68,25.93,24.08-5,2.2v-22h17.52v55.23l-5-4.63c-1-.92-2-1.87-3-2.75-.5-.44-1-.87-1.47-1.36s-.9-1-1.34-1.56l-5.48-6.59c-1.89-2.25-3.88-4.62-6-7S201.21,553.06,198.9,550.71Zm0,0c2,1.66,4.11,3.31,6.33,5s4.55,3.33,7,5.09l7.49,5.45c.63.47,1.28.93,1.9,1.45s1.2,1.08,1.77,1.65c1.16,1.12,2.35,2.18,3.51,3.27l-5,2.2v-45.4l3,3H213.3l3-3v25.89l-5-4.68-25.93-24.08,5-2.2v34.05c0,3.78-.05,7.57.05,11.35l-3.05-3.05a22,22,0,0,1,2.88,0l2.88.28,5.76.57-2.17,2.17c.16-1.75.32-3.49.54-5.19l.66-4.95C198.36,556.38,198.74,553.49,198.9,550.71Z"/><path class="cls-2" d="M245,540.92c-2.25,0-4.5.1-6.76.3s-4.5.53-6.76.86l-.47.07-.53-.65-2.13-2.61c-.7-.87-1.43-1.74-2.11-2.62-1.39-1.76-2.75-3.53-4-5.36L219,526.36h5.81l12.86,0h6.43c1,0,2.27.05,3.41.08.58,0,1.17.11,1.76.17l.88.09.88.16a22.12,22.12,0,0,1,7,2.33,17.82,17.82,0,0,1,5.84,5,19.67,19.67,0,0,1,3.22,6.77,28.94,28.94,0,0,1,.74,3.53c.11,1.17.28,2.35.29,3.5a37.65,37.65,0,0,1-.35,7,24.49,24.49,0,0,1-2.13,7,17.25,17.25,0,0,1-4.75,6,20.12,20.12,0,0,1-6.68,3.47,29.32,29.32,0,0,1-7,1.19c-2.4.11-4.42.06-6.59.07H224.71V540.8h17.52v17.4l-3-3c1.41,0,2.82,0,4.23,0l1.06,0h.94a13,13,0,0,0,1.64,0,5.82,5.82,0,0,0,2.71-.71,5.17,5.17,0,0,0,1.93-2.4,12.14,12.14,0,0,0,.84-3.75,7.79,7.79,0,0,0-.59-3.86,5.63,5.63,0,0,0-2.88-2.74A10.09,10.09,0,0,0,245,540.92Zm0,0a13.17,13.17,0,0,1,4.19.58,7.8,7.8,0,0,1,1.95.94,7.55,7.55,0,0,1,1.61,1.54,10.87,10.87,0,0,1,1.82,4.15,16,16,0,0,1,.39,4.65,8.77,8.77,0,0,1-2,5,9.18,9.18,0,0,1-2.22,1.88,11.2,11.2,0,0,1-2.55,1.09A12.55,12.55,0,0,1,247,561a9.45,9.45,0,0,1-1.27.19l-.63,0h-.54l-1.06,0c-1.41-.06-2.82,0-4.23,0h-3V543.8l3,3H227.71l3-3v25.93l-3-3h12.86c2.11,0,4.38,0,6.27-.06a23.41,23.41,0,0,0,5.61-.93,12.11,12.11,0,0,0,7.81-6.4,18.54,18.54,0,0,0,1.58-5.25,31.76,31.76,0,0,0,.28-5.84c0-1-.15-1.94-.23-2.9a23,23,0,0,0-.58-2.75,12.71,12.71,0,0,0-11.3-9.77l-.7-.13-.72-.07-1.44-.14c-1,0-1.91-.09-3-.07h-6.43l-12.86,0,2.62-4.53c.94,2,1.8,4.08,2.63,6.17.43,1,.81,2.09,1.21,3.14l1.2,3.15-1-.58c2.25.34,4.5.68,6.76.86S242.74,540.91,245,540.92Z"/><path class="cls-2" d="M271.81,569.72l-3.88-5.21c-1.34-1.79-2.68-3.66-4.06-5.57L262.5,557l2.66-.29c4.71-.51,9.42-.88,14.13-1.33,1.18-.1,2.35-.24,3.53-.27s2.35.07,3.53.07h6.18a1.26,1.26,0,0,0-.63.2,2,2,0,0,0-.89,1.1c-.06.31,0,.21,0,.33a1.75,1.75,0,0,0,.55,1,1.71,1.71,0,0,0,.95.48H282.19a33.59,33.59,0,0,1-3.84-.15,18.77,18.77,0,0,1-4.11-.87,14.47,14.47,0,0,1-4-2.13,13.12,13.12,0,0,1-3-3.5,17.56,17.56,0,0,1-2.15-8.16,21.64,21.64,0,0,1,1.05-8.11,13.61,13.61,0,0,1,2.19-4,12.5,12.5,0,0,1,3.54-3,15.74,15.74,0,0,1,4.1-1.57,22.61,22.61,0,0,1,4.06-.5l28.36,0h5.2l-2.6,4.51-6.65,11.52-.87,1.5H281.08a1.7,1.7,0,0,0,.86-.41,1.86,1.86,0,0,0,.6-1,.52.52,0,0,0,0-.24,1.7,1.7,0,0,0-.41-.86,1.86,1.86,0,0,0-1-.6l-.16,0h10.43c.53,0,1,0,1.62,0a19.58,19.58,0,0,1,7.2,1.38,12.63,12.63,0,0,1,6,5.24,17.21,17.21,0,0,1,2.1,7.21,24.62,24.62,0,0,1-.42,7.1,16.31,16.31,0,0,1-1.29,3.63,12.07,12.07,0,0,1-2.34,3.34,11.24,11.24,0,0,1-3.45,2.13,17,17,0,0,1-1.83.61c-.61.12-1.22.27-1.82.34a29.41,29.41,0,0,1-6.84-.1c-2.17-.18-4.31-.43-6.41-.64Zm0,0,12.74-1.33c2-.22,4.07-.46,6-.64a24.69,24.69,0,0,0,5.57-.93,8.58,8.58,0,0,0,3.87-2.48,7.44,7.44,0,0,0,1.28-1.69,9.24,9.24,0,0,0,.8-2.22,18.82,18.82,0,0,0,.3-5.29,11.35,11.35,0,0,0-1.29-4.67c-2.89-5.35-11.87-3.14-21.21-3.79a4.19,4.19,0,0,1-2.31-1.34,4.32,4.32,0,0,1-1-2.28,5.38,5.38,0,0,1,.07-1.79A4.19,4.19,0,0,1,278,539a4.32,4.32,0,0,1,2.28-1l.45,0h21l-2.6,1.5,6.65-11.52,2.6,4.5-28.14,0a16.7,16.7,0,0,0-2.94.35,9.79,9.79,0,0,0-2.48.94,6.65,6.65,0,0,0-3,3.74,15.85,15.85,0,0,0-.7,5.82,11.72,11.72,0,0,0,1.33,5.39,7.14,7.14,0,0,0,1.56,1.81,8.54,8.54,0,0,0,2.23,1.18,12.83,12.83,0,0,0,2.79.58,27.69,27.69,0,0,0,3.21.11h10.42c.16,0,.31,0,.49,0a4.32,4.32,0,0,1,2.55,1.14,4.13,4.13,0,0,1,.93,1.35,4.58,4.58,0,0,1,.33,1.23,5.2,5.2,0,0,1-.14,2.09,4.18,4.18,0,0,1-.66,1.35,4.08,4.08,0,0,1-1.26,1.12,4.7,4.7,0,0,1-2.33.58h-6.18c-1.18,0-2.35.09-3.53.07s-2.35-.17-3.53-.27c-4.71-.45-9.42-.82-14.13-1.33l1.28-2.22,2.6,5.95C269.92,565.47,270.85,567.56,271.81,569.72Z"/><path class="cls-2" d="M318.28,551.4c-1.72-1.71-3.41-3.38-5-5.06s-3.27-3.31-4.83-5-3.18-3.24-4.63-4.89c-1.2-1.81-2.48-3.58-3.76-5.35l-3.42-4.75h21.57l.9,1.25,7.4,10.31h-4.87l7.4-10.31.9-1.25h21.56l-3.41,4.75-15.82,22,.56-1.75v17.3l-1.66.83-5.76,2.88-2.88,1.44c-1,.48-1.93.95-2.85,1.5l-4.07,2.41-.36-5.15a12.18,12.18,0,0,1,.22-2.54l.37-2.57.76-5.22C317.12,558.74,317.67,555.13,318.28,551.4Zm0,0c.62,3.34,1.16,6.79,1.71,10.33l.76,5.38.37,2.73a14.24,14.24,0,0,1,.22,2.76l-4.43-2.74c1-.41,1.95-.9,2.91-1.38L322.7,567l5.76-2.88-1.66,2.68V550.44l.56-.78,15.82-22,2.44,4.75H331.45l2.44-1.25-7.4,10.31-2.44,3.4-2.44-3.4-7.4-10.31,2.44,1.25H302.47l2.44-4.75c1.36,1.9,2.71,3.8,4.15,5.66,1.18,2,2.19,4.1,3.28,6.11s2.08,4,3.08,6S317.36,549.44,318.28,551.4Z"/><path class="cls-2" d="M346.37,569.72l-3.88-5.21c-1.34-1.79-2.68-3.66-4.06-5.57L337.05,557l2.66-.29c4.71-.51,9.42-.88,14.13-1.33,1.18-.1,2.35-.24,3.53-.27s2.35.07,3.53.07h6.18a1.26,1.26,0,0,0-.63.2,2,2,0,0,0-.89,1.1c-.06.31,0,.21,0,.33a1.75,1.75,0,0,0,.55,1,1.71,1.71,0,0,0,.95.48H356.75a33.59,33.59,0,0,1-3.84-.15,18.77,18.77,0,0,1-4.11-.87,14.47,14.47,0,0,1-4-2.13,13.12,13.12,0,0,1-3-3.5,17.56,17.56,0,0,1-2.15-8.16,21.64,21.64,0,0,1,1.05-8.11,13.61,13.61,0,0,1,2.19-4,12.5,12.5,0,0,1,3.54-3,15.74,15.74,0,0,1,4.1-1.57,22.61,22.61,0,0,1,4.06-.5l28.36,0h5.2l-2.6,4.51-6.65,11.52-.87,1.5H355.64a1.7,1.7,0,0,0,.86-.41,1.86,1.86,0,0,0,.6-1,.52.52,0,0,0,0-.24,1.7,1.7,0,0,0-.41-.86,1.86,1.86,0,0,0-1-.6l-.16,0H366c.53,0,1,0,1.62,0a19.58,19.58,0,0,1,7.2,1.38,12.63,12.63,0,0,1,6,5.24,17.21,17.21,0,0,1,2.1,7.21,24.62,24.62,0,0,1-.42,7.1,16.31,16.31,0,0,1-1.29,3.63,12.07,12.07,0,0,1-2.34,3.34,11.24,11.24,0,0,1-3.45,2.13,17,17,0,0,1-1.83.61c-.61.12-1.22.27-1.82.34a29.41,29.41,0,0,1-6.84-.1c-2.17-.18-4.31-.43-6.41-.64Zm0,0,12.74-1.33c2-.22,4.07-.46,6-.64a24.69,24.69,0,0,0,5.57-.93,8.58,8.58,0,0,0,3.87-2.48,7.44,7.44,0,0,0,1.28-1.69,9.24,9.24,0,0,0,.8-2.22,18.82,18.82,0,0,0,.3-5.29,11.35,11.35,0,0,0-1.29-4.67c-2.89-5.35-11.87-3.14-21.21-3.79a4.19,4.19,0,0,1-2.31-1.34,4.32,4.32,0,0,1-1-2.28,5.38,5.38,0,0,1,.07-1.79,4.19,4.19,0,0,1,1.34-2.31,4.32,4.32,0,0,1,2.28-1l.45,0h21l-2.6,1.5,6.65-11.52,2.6,4.5-28.14,0a16.7,16.7,0,0,0-2.94.35,9.79,9.79,0,0,0-2.48.94,6.65,6.65,0,0,0-3,3.74,15.85,15.85,0,0,0-.7,5.82,11.72,11.72,0,0,0,1.33,5.39,7.14,7.14,0,0,0,1.56,1.81,8.54,8.54,0,0,0,2.23,1.18,12.83,12.83,0,0,0,2.79.58,27.69,27.69,0,0,0,3.21.11h10.42c.16,0,.31,0,.49,0a4.32,4.32,0,0,1,2.55,1.14,4.13,4.13,0,0,1,.93,1.35,4.58,4.58,0,0,1,.33,1.23,5.2,5.2,0,0,1-.14,2.09,4.18,4.18,0,0,1-.66,1.35,4.08,4.08,0,0,1-1.26,1.12,4.7,4.7,0,0,1-2.33.58H360.9c-1.18,0-2.35.09-3.53.07s-2.35-.17-3.53-.27c-4.71-.45-9.42-.82-14.13-1.33l1.28-2.22,2.6,5.95C344.47,565.47,345.41,567.56,346.37,569.72Z"/><path class="cls-2" d="M397.33,540.92c.28,2.44.6,4.82.92,7.11s.7,4.52,1,6.66l1,6.24a13.8,13.8,0,0,1,.07,3c0,1,0,2,0,3v1.86l-1.65.82-11.52,5.76-4.34,2.17V540.92l3,3H374.89l-.87-1.5-6.65-11.52-2.6-4.5h53.56l-2.54,4.52c-.27.48-.5,1-.78,1.47a12.55,12.55,0,0,1-1,1.36L412,536.38c-1.38,1.76-2.73,3.54-4.15,5.29l-.7.86-.6-.11-4.29-.77Q399.93,541.22,397.33,540.92Zm0,0q2-.3,4.29-.73c1.54-.27,3.19-.53,4.9-.77l-1.3.75c.8-2.1,1.66-4.16,2.5-6.24l1.27-3.11a12.55,12.55,0,0,1,.69-1.52c.27-.49.6-.93.88-1.41l2.61,4.52H370l2.6-4.5,6.65,11.52-2.6-1.5h12.19V572.6l-4.34-2.68L396,564.16l-1.66,2.68v-3.52a19.49,19.49,0,0,1,.07-3.52l1-6.72Z"/><path class="cls-2" d="M445.82,529.39c-.89,1.88-1.31,2.84-2.45,5.76-.85,2.09-1.76,4.33-2.77,6.59l-.31.69-1.13.14c-1.85.23-3.69.4-5.54.59l-5.54.57c-.92.09-1.85.21-2.77.25s-1.85,0-2.77,0c-1.85,0-3.69,0-5.54,0l3-3v2.88l-3-3h20.48l3.2,2-.6,2.5-6.65,11.52-.87,1.5H417l3-3v2.88l-3-3h17.35l-2.6,4.5-6.66,11.52-.87,1.5H402.49V526.4h3c3.58,0,7.18,0,10.81.08.91,0,1.83,0,2.74,0s1.77.16,2.65.26l5.15.63,9.81,1.17C439.8,528.87,442.85,529.17,445.82,529.39Zm-6,2c-3.75.22-1.43-1.48-5-1.14s-7,.76-10.36,1.17l-4.93.63c-.81.1-1.62.24-2.39.26s-1.53,0-2.31,0c-3.1,0-6.22.08-9.36.08l3-3v40.33l-3-3h17l-2.6,1.5,6.66-11.52,2.6,4.5H414v-8.88h16.83l-2.6,1.5,6.65-11.52,2.6,4.5H414v-8.87l3,0c1.85,0,3.69,0,5.54,0,.92,0,1.85-.09,2.77,0s1.85.16,2.77.25l5.54.57c1.85.2,3.69.37,5.54.59l-1.43.83c1.21-1.59-.49-3.18.88-4.93C440.66,532.61,438.52,533.34,439.82,531.39Z"/><path class="cls-2" d="M449.65,552.73c.14,3.18.47,6.26.87,9.07s.82,5.4,1.09,7.93l.19,1.75-2.15.21-5.76.56-2.88.28c-1,.09-1.92.21-2.88.25l-3.11.15.05-3.21q.09-5.42.06-10.85V519.46l6,4.68,20.17,18.73h-5.08l20.17-18.73,5-4.68V568.7l-1.66.83-11.52,5.76-4.34,2.17V562.67q0-1.24,0-2.48a24,24,0,0,1,0-2.48c.14-1.66.32-3.31.47-5l4.32,1.88c-3.15,2.4-6.28,4.81-9.46,7.16l-1.15.85-.72-.85c-1.14-1.36-2.27-2.76-3.51-4.32S451.2,554.3,449.65,552.73Zm0,0c1.33,1.1,2.8,2.18,4.44,3.31s3.4,2.4,5.13,3.72h-1.87c2.58-3,5.21-6,7.83-8.92l3.75-4.24.58,6.13c.16,1.66.34,3.31.47,5a24,24,0,0,1,0,2.48q0,1.24,0,2.48v9.94l-4.34-2.68,11.52-5.76-1.66,2.68v-40.5l5,2.2-20.17,18.73-2,1.9-2-1.9-20.17-18.73,5-2.2v32.54q0,5.42.06,10.85l-3.06-3.06c1,0,1.92.16,2.88.25l2.88.28,5.76.56-2,2c.27-3.14.71-6.22,1.09-9.07S449.51,555.21,449.65,552.73Z"/></svg>