<svg id="guignols-logo-black" xmlns="http://www.w3.org/2000/svg" viewBox="0 0 554.72 451.98"><defs><style>.cls-1{fill:none;}</style></defs><title>guignols-logo-black</title><g id="lines"><path class="cls-1" d="M204.6,155.17l5.36-2.43-9.05-6.57,3.34-1.36a313.55,313.55,0,0,1,55.73-10l-.55,3c-21.59,1.68-43.08,7-50.21,9.51l4.94,3.59,9.15-4.15,11.11,23.8-20.73-15.05-5.15,2.33,38.1,25.28c.56-1.22,1-2.35,1.45-3.32L228.14,149l6.81-1.11c11.4-1.85,22.38-2.38,25.33-2.63l1,8.95c-4.62.38-13.29.88-18,1.53l14.87,22.92-.78,2.12c-.1.27-1.26,3.38-3.12,7.3l9.46,6.28a6.49,6.49,0,0,1,13,0L284,190c-2.38-4.76-3.91-8.86-4-9.17l-.75-2,14.88-24.63c-5-.4-13.94-.62-19-.68l1.26-6.09.35-2.75c5.51.23,20,.65,25.42,1.28l7,.8-19.91,33c.65,1.57,1.53,3.58,2.56,5.68L334,160.2l-9.36-3.8L301.84,173l11.28-25.57,10.94,4.44,5.49-4c-5.49-2.05-33.52-5-49.6-7.51l5-4.09c19.44,3.53,48.77,8.92,49.53,9.25l3.16,1.41-9.22,6.71,8.86,3.59L343,144.79l-14.12-4.62-5.33-1.83L288,132.5l7.83-4.67,20.53,3.6,20.78-17.54L282,38,275.32,21l-75.54,98.2L217.32,128c19.26-7.73,29.91-7.74,51.15-7.74,2,0,8.05.05,10.08.12l-9.32,6c-22.61.73-56.06,7.72-77.85,19.91l.07.23Zm60.57,29.5a2.17,2.17,0,1,1,2.17-2.17A2.17,2.17,0,0,1,265.17,184.67Zm11-7.17a3,3,0,1,1-3-3A3,3,0,0,1,276.17,177.5Zm6.91-54.62,29.84-12.57L274,46.61l-46,63.54,60.51-11-16-24.67L257.32,92.33l9.63-1.94,4.59-9.51,1.25,3.88.63,4.33h.05l4.19,6.18L239,103.17l34.13-40.43L295.42,97l6.55,6.79L212,120.17,274.28,34.3,327.08,115l-37.83,11.1L271.6,140.68l-2.6,15L266,159l-1.26-22.68ZM269.67,168.5a5.5,5.5,0,1,1-5.5-5.5A5.51,5.51,0,0,1,269.67,168.5Z"/><polygon class="cls-1" points="320.25 154.63 315.21 152.58 311.5 161.01 320.25 154.63"/><path class="cls-1" d="M285.48,227.52a42.5,42.5,0,0,1,14-7.37,43.78,43.78,0,0,1,6.82-1.48A74.9,74.9,0,0,0,290.81,212l-.52-.16-1-.57a41.49,41.49,0,0,0-3.67,3.35c-4.55,4.62-7.79,10.54-10.16,16.84A96.15,96.15,0,0,0,271,248.85a46.92,46.92,0,0,1,4.24-9.51A43,43,0,0,1,285.48,227.52Z"/><path class="cls-1" d="M228.67,256.66a15.68,15.68,0,1,0,15.68,15.68A15.69,15.69,0,0,0,228.67,256.66Zm0,28.58a12.74,12.74,0,1,1,12.74-12.74A12.75,12.75,0,0,1,228.65,285.24Z"/><path class="cls-1" d="M315.48,218.41a44.34,44.34,0,0,1,9.36,1.81,84.68,84.68,0,0,0-25.12-15.39,52.25,52.25,0,0,0-6.63,3.66,80.26,80.26,0,0,1,20.22,9.8C314,218.31,314.76,218.35,315.48,218.41Z"/><circle class="cls-1" cx="264.17" cy="168.5" r="2.5"/><path class="cls-1" d="M237.59,219.17a41.81,41.81,0,0,1,13.91,7.44,42.72,42.72,0,0,1,10.08,11.84,47,47,0,0,1,4,9.06,101.51,101.51,0,0,0-3.73-14.26c-2.31-6.57-5.44-12.83-9.86-17.87a41.29,41.29,0,0,0-4.34-4.25l-.25.28-.37.4-.52.16a74.89,74.89,0,0,0-14.19,5.95A43.1,43.1,0,0,1,237.59,219.17Z"/><path class="cls-1" d="M221.7,217.41c1.29-.11,2.59-.16,3.88-.14a80.12,80.12,0,0,1,18.66-8.78,46,46,0,0,0-6.47-3.72,84.57,84.57,0,0,0-23.51,13.94A43.46,43.46,0,0,1,221.7,217.41Z"/><path class="cls-1" d="M265.4,273.06c0-.57,0-1.1,0-1.65a46.35,46.35,0,0,0-.4-6.14,35.35,35.35,0,0,0-1.37-5.91,28.42,28.42,0,0,0-5.93-10.29,27.15,27.15,0,0,0-9.75-6.82,32.93,32.93,0,0,0-34.55,6.23,30.19,30.19,0,0,0-7.18,10.32,39.09,39.09,0,0,0-2.88,12.58,41.68,41.68,0,0,1,.14-6.58,34.62,34.62,0,0,1,1.36-6.51,31.25,31.25,0,0,1,6.69-11.65,35.7,35.7,0,0,1,38.17-8.78,32.07,32.07,0,0,1,11.74,7.73,29.18,29.18,0,0,1,3.5,4.43,46,46,0,0,0-5.24-10.38,39.89,39.89,0,0,0-10.21-10.35,37.86,37.86,0,0,0-13.06-5.79,37.17,37.17,0,0,0-11.75-.8A76.94,76.94,0,0,0,192.33,285c0,.35,0,.69,0,1a32.36,32.36,0,0,0,18.11,15,39.55,39.55,0,0,0,26.94-.9,30.44,30.44,0,0,0,11.44-7.81,22.13,22.13,0,0,0,3.77-5.91,20.25,20.25,0,0,0,1.55-6.92,20.54,20.54,0,0,1-1,7.12,23,23,0,0,1-3.43,6.42,32.11,32.11,0,0,1-11.38,9.15,42.9,42.9,0,0,1-29.13,3.17,37.9,37.9,0,0,1-13.77-6.62c-.75-.57-1.47-1.18-2.17-1.8a76.32,76.32,0,1,0,137.35-56.28q-1.36-.59-2.76-1.08a50,50,0,0,0-23.77-2.3A35.44,35.44,0,0,0,292.59,241a22,22,0,0,0-4.91,3.56,17,17,0,0,0-3.51,5,17.16,17.16,0,0,1,3.24-5.24,22.52,22.52,0,0,1,4.8-3.95,36.55,36.55,0,0,1,11.6-4.56,52.13,52.13,0,0,1,23.49.55,77.26,77.26,0,0,0-13-12.42,37.67,37.67,0,0,0-13.63.57,38.55,38.55,0,0,0-13.18,5.74c-4,2.73-8,6-10.36,10.31a58.11,58.11,0,0,0-6.61,25.85,43.7,43.7,0,0,0,.29,6.62l0,1.51c.06,1,.14,2,.29,3a29.65,29.65,0,0,0,1.43,5.82,27.66,27.66,0,0,0,6.31,10,30.3,30.3,0,0,0,9.94,6.77,34.11,34.11,0,0,0,5.81,1.89,34.58,34.58,0,0,0,6.08.89,32.44,32.44,0,0,0,12.15-1.61A26.79,26.79,0,0,0,323.36,295a28,28,0,0,0,6.7-10.56,41.46,41.46,0,0,0,2.32-12.7,47.41,47.41,0,0,1,.14,6.58,34.87,34.87,0,0,1-1,6.57,29.32,29.32,0,0,1-6.2,11.95,29.78,29.78,0,0,1-11.19,7.87,35.21,35.21,0,0,1-13.53,2.51A37.34,37.34,0,0,1,287,304.57,35.26,35.26,0,0,1,275.24,297a32.31,32.31,0,0,1-7.65-11.86,35,35,0,0,1-1.76-6.85c-.18-1.16-.29-2.33-.37-3.5Zm-36.73,19.27a20,20,0,1,1,20-20A20,20,0,0,1,228.67,292.33Zm78,1.67a21.67,21.67,0,1,1,21.67-21.67A21.69,21.69,0,0,1,306.67,294Zm-12.25,19.79a10.71,10.71,0,1,1,0,21.41H284.09v7.19c0,4.48-7.16,8.1-16.17,8.1-8.66,0-16.17-3.63-16.17-8.1v-7.19H241.42a10.71,10.71,0,1,1,0-21.41Z"/><path class="cls-1" d="M300.21,324.5a5.8,5.8,0,0,0-5.79-5.79H284.09v11.59h10.33A5.8,5.8,0,0,0,300.21,324.5Z"/><rect class="cls-1" x="262.3" y="326.89" width="10.72" height="10.72" transform="translate(-156.54 286.56) rotate(-45)"/><path class="cls-1" d="M235.62,324.5a5.8,5.8,0,0,0,5.79,5.79h10.33V318.71H241.42A5.8,5.8,0,0,0,235.62,324.5Z"/><path class="cls-1" d="M376.71,200.77a12,12,0,0,0-3.63-.59,8.81,8.81,0,0,0-5.15,1.57,9.79,9.79,0,0,0-3.87,7.93,18.66,18.66,0,0,0,12.27,17.41,9.78,9.78,0,0,0,8.77-1c5-3.52,5.19-11.84.46-18.56A17.64,17.64,0,0,0,376.71,200.77Zm.9,22.17a6.55,6.55,0,0,1-3.26-.14,10,10,0,0,1-6.92-9.8,6.54,6.54,0,0,1,1-3.12,3.93,3.93,0,0,1,2.51-1.82,5.17,5.17,0,0,0-.65,2.48,7.67,7.67,0,0,0,.32,2.23,13.78,13.78,0,0,0,2,4,13.63,13.63,0,0,0,3.09,3.18,7.62,7.62,0,0,0,2,1,5.16,5.16,0,0,0,2.56.21A3.93,3.93,0,0,1,377.62,222.94Z"/><path class="cls-1" d="M370.07,183a17.56,17.56,0,0,0-10.3,3.33c-11.39,8-12.33,26.36-2.1,40.87S385.48,247,396.87,239c6.87-4.85,8-12.06,7.7-17.27-.37-6.85-3.4-14.76-8.29-21.7C389.72,190.69,379.77,183,370.07,183Zm20.68,51.09a15.79,15.79,0,0,1-9.22,2.84,20.53,20.53,0,0,1-6.2-1,30.08,30.08,0,0,1-19.92-28.25c.21-6,2.67-10.91,6.91-13.9s9.71-3.64,15.42-1.83a28.62,28.62,0,0,1,14.42,11C400,214,399.36,228,390.74,234.09Z"/><path class="cls-1" d="M338.7,237.57a41,41,0,0,0-10.67-8.9,38.62,38.62,0,0,0-4.38-2.16,80,80,0,0,1,9.2,10.21c.49.65,1,1.3,1.42,2a44.89,44.89,0,0,1,8.81,5A46.88,46.88,0,0,0,338.7,237.57Z"/><path class="cls-1" d="M149.49,225.29c4.42,3.12,11.7.42,16.24-6s4.63-14.2.21-17.31a7.35,7.35,0,0,0-4.3-1.3c-4,0-8.68,2.69-11.94,7.31A17.79,17.79,0,0,0,146.25,218C146.25,221.24,147.4,223.82,149.49,225.29Zm6.15-5.31a7.61,7.61,0,0,0,2-1,13.64,13.64,0,0,0,3.09-3.18,13.78,13.78,0,0,0,2-4,7.66,7.66,0,0,0,.32-2.23,5.17,5.17,0,0,0-.65-2.48,3.93,3.93,0,0,1,2.51,1.82,6.54,6.54,0,0,1,1,3.12,10,10,0,0,1-6.92,9.8,6.55,6.55,0,0,1-3.26.14,3.93,3.93,0,0,1-2.56-1.74A5.16,5.16,0,0,0,155.64,220Z"/><path class="cls-1" d="M344,227.6a93.51,93.51,0,0,1,19,56.72A114.11,114.11,0,0,1,356.67,320l16,27.33C383,344.68,419.92,333,419.92,333l41-34.5L496.33,262,437,239.67s-19.28-15-25.91-24.87c2.86,11.65.94,23.39-9.5,30.75a28,28,0,0,1-16.33,5c-12.06,0-25-6.85-33.65-19.07-12.8-18.15-11.2-41.39,3.56-51.8,7.48-5.28,16.33-6,25.59-2.13a46,46,0,0,1,13.57,9.1c-4.19-8-7.17-18.55-10.66-27-2.3-5.47-3.45-20.63-5.67-29-6.24,9.63-26.58,43.83-26.58,43.83l-38.12,29.25S336.36,217.41,344,227.6Zm28.88,41.6c.28,0,28.16-4.89,43-25.66l7.2-6.54,3.74,10,5.16,27.74,32.1-.73-2.78,4c-10.91,15.81-46.64,42.21-71.69,49.78l-6.4,6.94-14.38-70.56Z"/><polygon class="cls-1" points="217.88 153.55 224.25 158.17 221.36 151.97 217.88 153.55"/><path class="cls-1" d="M346.74,253.09a37.29,37.29,0,0,0-8.42-8.13A79.61,79.61,0,0,1,349,285a80.32,80.32,0,0,1-160.34,7,41.41,41.41,0,0,1-3.39-5c-.7-1.19-1.34-2.41-1.92-3.65,0,.29,0,.59,0,.88a85.33,85.33,0,0,0,170.66,0,84.11,84.11,0,0,0-4.37-26.71A37.5,37.5,0,0,0,346.74,253.09Z"/><path class="cls-1" d="M204.47,236.72a80.18,80.18,0,0,1,11.17-12,38.16,38.16,0,0,0-6.38,3,40.91,40.91,0,0,0-10.56,8.91,47.43,47.43,0,0,0-4.48,6.3,86,86,0,0,0-7.61,18.28,59,59,0,0,0,2.1,16.11A79.48,79.48,0,0,1,204.47,236.72Z"/><path class="cls-1" d="M423.17,247.5l-4.47.74C405,265.77,383.61,272,376.27,273.62l1.08,5.47C385,277.6,411.65,269.24,423.17,247.5Z"/><path class="cls-1" d="M385.41,319.73l.88,4.46.67-.73.67-.19c21.55-6.27,53.27-28.62,66.49-44l-19.94.45C431.43,284.48,415.37,310.13,385.41,319.73Z"/><path class="cls-1" d="M410.32,298.27l-2.05-8c-8.54,5.9-17.67,10.19-25.94,13.95l1.85,9.33A77.24,77.24,0,0,0,410.32,298.27Z"/><path class="cls-1" d="M404.34,274.86a79.25,79.25,0,0,1-25.87,9.88l3.05,15.4c9.53-4.37,18.14-8.69,25.69-14Z"/><path class="cls-1" d="M411.75,287.7l1.92,7.52a95.29,95.29,0,0,0,14-16.88l-1-5.46A74.73,74.73,0,0,1,411.75,287.7Z"/><path class="cls-1" d="M407.88,272.54l2.8,11a67.16,67.16,0,0,0,14.92-16.17l-2-10.86A58.48,58.48,0,0,1,407.88,272.54Z"/><path class="cls-1" d="M179.35,314.67a93.94,93.94,0,0,1-5-30.35c0-.37,0-.73,0-1.1.26-8.86,3.38-24.1,3.38-24.1l.38-1.37a93.68,93.68,0,0,1,15.18-30.15A95.75,95.75,0,0,1,227.21,200c-23-13.29-54.42-42.58-54.42-42.58s-11.64-16.2-15.72-23.42l-10.69,45c9.76-6.07,21-7.81,31-.73,7.43,5.24,11.92,13.62,12.67,23.62a46.27,46.27,0,0,1-32.63,46.29A35.47,35.47,0,0,1,148,249.4a29.34,29.34,0,0,1-17.1-5.31c-13.79-9.72-12.68-27.14-5.28-41.87L100.6,229.53c-1.37,1.18-31.28,27.1-48,40.27,9,18,36,49.2,36,49.2s52.39,20.17,74.26,25.73L179,314.51Zm-31.67,20.79-21.76-12.72c-24.23-7.45-45.81-32.39-56.81-48.33l-2.86-4.14,32.36,1.46L103.76,244l9.65-5.31,1.29,1.8c13.88,19.37,21.63,20.87,42.33,24.9l5.63,1.1,6.13-5.17Z"/><path class="cls-1" d="M119.17,350l3.82-2.71,51.68,19.21L185.54,341s33.27,44,82.13,44A110.28,110.28,0,0,0,331,365.64c12.84-8.58,15.95-16.38,16-16.47l2.5-5.67,16.37,23.15,41-9.65,11.4-6.22c-11.31,30-18.48,38.32-42,58.39l92.75-.88L438.9,355.89l-7.63,7.66-18.6,29.33,28.27-.93-4.66-9.08-6.94,3.29L424,388l14.06-21.37,17.37,33.86L396,402.44,424.2,357.9l.35-.35,70.79-71.14,36.6-35-9.22-2-7.52-1.63-68.4-19.71c-4.63-5.52-13.84-16.21-32.3-37.24L381.33,81.33l-31.46,60.45-10,20.55s-64.42,46.73-71.3,46.73S184.67,149,184.67,149l-8.25-19.45L165.92,97.67,153,78.45,123.16,179.77,86.53,211,21,262.33l44.67,59.09,4.9,7.44,11.72,4.41,5.45,2.6-41.45,66,86.66-3.71-32.51-52.05L76.81,382.48l27.27.78-4.85-8.09-5.89.66-4.83-1,13.11-11.18,18.65,29.08L60.53,391l35-53.39,8.06,3.63.09-.06,38.69,62-99.56,4.27-5.17,8.24,85.76-1.4,12-6.27,12.31,8.7,12.5-8.37C139.06,389.84,119.17,350,119.17,350ZM80.33,325,33.17,264s56-40.47,59.31-43.31l42.71-46.6,19.9-83.65,6.06,23.38c.07.25,17.86,39.5,17.86,39.5l67.2,47.73c.85.63,1.68,1.29,2.49,2l3,2.78a46.94,46.94,0,0,1,5,5.86,59,59,0,0,1,9,20.43,113.83,113.83,0,0,1,2.87,20c0-.34,0-.67,0-1a104,104,0,0,1,3.07-20.9c.24-.86.41-1.74.72-2.59l.88-2.55a50.42,50.42,0,0,1,2.06-5,22.11,22.11,0,0,1,1.25-2.44l1.34-2.41c.5-.77,1-1.53,1.55-2.29a23,23,0,0,1,1.64-2.24c4.62-5.83,11.53-9.63,18-13.09l47-30.57,25.25-45.75,8.25-23.58,3,14c.07.29,23.33,80,23.33,80L442,234l78.33,18.67-21.83,17L471.67,301l-49,42-53.83,15.83-13-15.67L350.5,333c-16.58,27.15-47.76,45.65-81.83,45.65a94.42,94.42,0,0,1-83.41-50.31l-11.34,25.78-8,1.5C138.86,349.37,80.33,325,80.33,325Z"/><path class="cls-1" d="M126.1,282.58a114,114,0,0,0,25.83,16.23l4.21-16.39a93,93,0,0,1-26.18-9Z"/><path class="cls-1" d="M111.94,245.25l-2.28,1.25c11.95,22.45,40.26,29,47.91,30.34l1.52-5.9-3-.59C135.82,266.41,126.24,264.55,111.94,245.25Z"/><circle class="cls-1" cx="270.17" cy="194.5" r="2.5"/><path class="cls-1" d="M405.86,364.94,361,377.35l-8.6-18.19c-9.83,11-35.56,32.84-84.7,32.84-41.46,0-67.94-27.33-79.5-39.62l-8.53,21.31-52.17-16.86A158.54,158.54,0,0,0,349.73,420.6v-.1h.16A160.57,160.57,0,0,0,405.86,364.94ZM351.33,371l-1,16.33-9.67-8.67Zm-31.67,18.67-3.67,17-13.67-10.33Zm-42.83,9.4-9.6,14.5-9-14.6Zm-40.73-4.88-11.7,9.71-3.88-16.69Zm-45.43-27.52,10,10.67L189.33,384ZM143,369l23.67,7.67,2,20.33Zm46.86,41.9,13.6-10.6,5.54,23Zm41,17.46,14-14,13.49,19.09ZM282,434.28l9.35-18,18.33,13.43Zm50-11.95L337,403l10,10.67Zm22.78-10-20.18-21.86-12.32,37.62-34.55-23.71-19.65,34.49L246,402.23l-26.09,26.09-12.27-40.23L181.08,406l-3-23.13,2.89-6.13,4.31,19.2L211,378.58,222.74,417l24.58-22.58,20.6,34,17.69-32.85,33.45,23,12-36.71,20.82,18.47,3.89-15.49,5.22-3.53ZM370,381.67l19-5-24.67,24.67Z"/><path class="cls-1" d="M461.49,347.31l-12-2.11-6.71,6.74,35.43,61.64-108.68,1q-1.14.87-2.29,1.73-3.09,2.29-6.27,4.42l136.63,3.18-41.19-64.23Z"/><path class="cls-1" d="M120.73,295.33a74,74,0,0,0,28,15.88l2.18-8.47a117.14,117.14,0,0,1-26.43-16.32Z"/><path class="cls-1" d="M136.3,236.7c5.44,3.84,12.41,4.85,19.64,2.87a36.56,36.56,0,0,0,25.65-36.38c-.55-7.47-3.86-13.7-9.29-17.53a16.91,16.91,0,0,0-9.92-3.2c-9.4,0-19,7.47-25.41,16.5C128.29,211.24,124.39,228.3,136.3,236.7Zm6.82-33.36c7.82-11.09,20.73-15.5,28.78-9.83s8.23,19.31.41,30.41c-5.5,7.81-13.53,12.3-20.61,12.3a14,14,0,0,1-8.17-2.48c-4-2.81-6.18-7.57-6.19-13.42A30,30,0,0,1,143.12,203.34Z"/><path class="cls-1" d="M117.61,292.43l3.66-8.69a148.59,148.59,0,0,1-16.67-16.91l-1.4,7.54A92,92,0,0,0,117.61,292.43Z"/><path class="cls-1" d="M97.23,276.68l-20.77-.94c13.43,15.67,42.09,41.54,63.45,47.76l3.75,3.5,2-3.8,1.51-5.87C116.43,308.37,100.32,282.16,97.23,276.68Z"/><polygon points="351.33 371 340.67 378.67 350.33 387.33 351.33 371"/><path class="cls-1" d="M122.9,279.86l3.55-8.43a59.66,59.66,0,0,1-19.36-18l-1.54,8.26A146.75,146.75,0,0,0,122.9,279.86Z"/><polygon points="332 422.33 347 413.67 337 403 332 422.33"/><polygon points="319.67 389.67 302.33 396.33 316 406.67 319.67 389.67"/><polygon points="370 381.67 364.33 401.33 389 376.67 370 381.67"/><polygon points="276.83 399.07 258.26 398.97 267.23 413.57 276.83 399.07"/><polygon points="230.85 428.36 258.37 433.5 244.88 414.41 230.85 428.36"/><polygon points="236.1 394.19 220.51 387.21 224.4 403.9 236.1 394.19"/><polygon points="190.67 366.67 189.33 384 200.67 377.33 190.67 366.67"/><polygon points="189.86 410.9 209 423.33 203.46 400.31 189.86 410.9"/><polygon points="281.98 434.28 309.66 429.74 291.34 416.31 281.98 434.28"/><polygon points="143 369 168.67 397 166.67 376.67 143 369"/><polygon points="351.89 400.35 331.07 381.88 319.06 418.59 285.61 395.64 267.92 428.48 247.32 394.44 222.75 417.01 211.02 378.57 185.25 395.97 180.95 376.77 178.05 382.9 181.08 406.03 207.65 388.09 219.92 428.32 246.01 402.23 268.08 438.85 287.72 404.36 322.27 428.07 334.59 390.45 354.78 412.32 361 381.33 355.78 384.86 351.89 400.35"/><path d="M306.67,250.67a21.67,21.67,0,1,0,21.67,21.67A21.69,21.69,0,0,0,306.67,250.67Zm0,38.65a17,17,0,1,1,17-17A17,17,0,0,1,306.67,289.32Z"/><path d="M228.67,252.33a20,20,0,1,0,20,20A20,20,0,0,0,228.67,252.33Zm0,35.68a15.68,15.68,0,1,1,15.68-15.68A15.69,15.69,0,0,1,228.67,288Z"/><path d="M157,265.44c-20.7-4-28.45-5.53-42.33-24.9l-1.29-1.8L103.76,244,94.17,266.5l-27.92,3.78,2.86,4.14c11,15.94,32.57,40.88,56.81,48.33l31.76,16.72,11.12-78.09-6.13,5.17Zm-49.93-12a59.66,59.66,0,0,0,19.36,18l-3.55,8.43a146.75,146.75,0,0,1-17.34-18.17Zm-2.49,13.4a148.59,148.59,0,0,0,16.67,16.91l-3.66,8.69a92,92,0,0,1-14.41-18.05Zm41.06,56.37,1,3.8-6.75-3.5c-21.36-6.22-50-32.08-63.45-47.76l20.77.94c3.08,5.48,19.2,31.69,49.94,40.64Zm3.08-12a74,74,0,0,1-28-15.88l3.75-8.91a117.14,117.14,0,0,0,26.43,16.32Zm3.19-12.4a114,114,0,0,1-25.83-16.23l3.86-9.16a93,93,0,0,0,26.18,9Zm5.64-22c-7.65-1.37-36-7.89-47.91-30.34l2.28-1.25c14.3,19.3,23.87,21.16,44.13,25.1l3,.59Z"/><path d="M155.64,221.94a6.55,6.55,0,0,0,3.26-.14,10,10,0,0,0,6.92-9.8,6.54,6.54,0,0,0-1-3.12,3.93,3.93,0,0,0-2.51-1.82,5.17,5.17,0,0,1,.65,2.48,7.66,7.66,0,0,1-.32,2.23,13.78,13.78,0,0,1-2,4,13.64,13.64,0,0,1-3.09,3.18,7.61,7.61,0,0,1-2,1,5.16,5.16,0,0,1-2.56.21A3.93,3.93,0,0,0,155.64,221.94Z"/><path d="M143.53,233.74a14,14,0,0,0,8.17,2.48c7.08,0,15.1-4.5,20.61-12.3,7.82-11.09,7.64-24.73-.41-30.41s-21-1.27-28.78,9.83a30,30,0,0,0-5.78,17C137.35,226.17,139.55,230.94,143.53,233.74ZM149.7,208c3.25-4.62,7.92-7.31,11.94-7.31a7.35,7.35,0,0,1,4.3,1.3c4.42,3.12,4.33,10.88-.21,17.31s-11.82,9.13-16.24,6c-2.09-1.47-3.24-4-3.25-7.24A17.79,17.79,0,0,1,149.7,208Z"/><polygon points="269 155.67 271.6 140.68 289.25 126.12 327.08 115.02 274.28 34.3 212.05 120.17 301.97 103.77 295.42 96.98 273.14 62.74 239.01 103.17 277.67 95.25 273.47 89.07 273.42 89.08 272.79 84.75 270.92 82.5 266.95 90.39 257.32 92.33 272.41 74.45 288.46 99.12 227.95 110.16 274 46.61 312.92 110.31 283.08 122.88 264.74 136.32 266 159 269 155.67"/><circle cx="273.17" cy="177.5" r="3"/><circle cx="265.17" cy="182.5" r="2.17"/><path d="M258.67,168.5a5.5,5.5,0,1,0,5.5-5.5A5.51,5.51,0,0,0,258.67,168.5Zm5.5-2.5a2.5,2.5,0,1,1-2.5,2.5A2.5,2.5,0,0,1,264.17,166Z"/><path d="M377.61,221a7.62,7.62,0,0,1-2-1,13.63,13.63,0,0,1-3.09-3.18,13.78,13.78,0,0,1-2-4,7.67,7.67,0,0,1-.32-2.23,5.17,5.17,0,0,1,.65-2.48,3.93,3.93,0,0,0-2.51,1.82,6.54,6.54,0,0,0-1,3.12,10,10,0,0,0,6.92,9.8,6.55,6.55,0,0,0,3.26.14,3.93,3.93,0,0,0,2.56-1.74A5.16,5.16,0,0,1,377.61,221Z"/><path d="M377.73,191.93c-5.7-1.81-11.18-1.15-15.42,1.83s-6.69,7.93-6.91,13.9a30.08,30.08,0,0,0,19.92,28.25,20.53,20.53,0,0,0,6.2,1,15.79,15.79,0,0,0,9.22-2.84c8.62-6.07,9.25-20.06,1.41-31.18A28.62,28.62,0,0,0,377.73,191.93Zm7.39,34.18a9.78,9.78,0,0,1-8.77,1,18.66,18.66,0,0,1-12.27-17.41,9.79,9.79,0,0,1,3.87-7.93,8.81,8.81,0,0,1,5.15-1.57,12,12,0,0,1,3.63.59,17.64,17.64,0,0,1,8.87,6.78C390.31,214.27,390.11,222.59,385.12,226.11Z"/><path d="M230.71,324.5a10.72,10.72,0,0,0,10.71,10.71h10.33v7.19c0,4.48,7.51,8.1,16.17,8.1,9,0,16.17-3.63,16.17-8.1v-7.19h10.33a10.71,10.71,0,1,0,0-21.41h-53A10.72,10.72,0,0,0,230.71,324.5Zm53.38-5.79h10.33a5.79,5.79,0,0,1,0,11.59H284.09Zm-16.42,6,7.58,7.58-7.58,7.58-7.58-7.58Zm-15.92,5.63H241.42a5.79,5.79,0,0,1,0-11.59h10.33Z"/><path d="M473.67,342.67l-8.33-3.33,89.39-91.8L450.67,217.67c-10.15-10.4-23.53-24.85-26.33-28C421.92,182.24,402,113.87,389,69l-9.33-17.67L364.67,94l-19.22,45.34-10.44-7L349,114,291,34,268.67,0,190,117.33l10,14c-4.16,1.85-6.52,6.87-10.53,9.08L179.67,88,150.33,47.33,113,174.67,0,259l62,80,13,2.33-56.67,84,105-2.67,12.6-4.66L148,427.33l16.33-7.67C193,442.82,229.87,452,268.47,452c29.6,0,59.06-4.71,84.32-19.43l161.88,3.78-50-77.67ZM269.23,126.31l9.32-6c-2-.07-8-.12-10.08-.12-21.24,0-31.89,0-51.15,7.74l-17.54-8.74L271.32,20,282,38l55.13,75.93-20.78,17.54-20.53-3.6L288,132.5l35.5,5.83,5.33,1.83L343,144.79l-5.67,12.43-8.86-3.59,9.22-6.71-3.16-1.41c-.76-.34-30.09-5.72-49.53-9.25l-5,4.09c16.08,2.47,44.11,5.46,49.6,7.51l-5.49,4-10.94-4.44L301.84,173l22.78-16.59,9.36,3.8-42.2,25.14c-1-2.1-1.92-4.11-2.56-5.68l19.91-33-7-.8c-5.44-.63-19.91-1.05-25.42-1.28l-.35,2.75-1.26,6.09c5,.06,14,.27,19,.68l-14.87,24.63.75,2c.11.31,1.65,4.41,4,9.17l-7.37,4.39a6.49,6.49,0,0,0-13,0l-9.46-6.28c1.86-3.92,3-7,3.12-7.3l.78-2.12-14.87-22.92c4.74-.65,13.41-1.15,18-1.53l-1-8.95c-2.94.24-13.93.77-25.33,2.63L228.14,149l19.94,30.73c-.4,1-.89,2.11-1.45,3.32l-38.1-25.28,5.15-2.33,20.73,15.05-11.11-23.8-9.15,4.15-4.94-3.59c7.13-2.47,28.62-7.83,50.21-9.51l.55-3a313.55,313.55,0,0,0-55.73,10l-3.34,1.36,9.05,6.57-5.36,2.43-13.14-8.72-.07-.23C213.17,134,246.62,127,269.23,126.31Zm51,28.32L311.5,161l3.72-8.43ZM272.67,194.5a2.5,2.5,0,1,1-2.5-2.5A2.5,2.5,0,0,1,272.67,194.5Zm-54.79-41,3.48-1.57,2.89,6.2ZM147.71,416.69,135.4,408l-12,6.27-85.76,1.4,5.17-8.24,99.56-4.27-38.69-62-.09.06-8.06-3.63L60.53,391l59.73,1.72-18.65-29.08-8.69,7.09-2,5.75,8.31-1.32,4.85,8.09-27.27-.78,23.63-36.35,32.51,52.05L46.29,401.9l41.45-66-5.45-2.6-11.72-4.41-4.9-7.44L21,262.33,86.53,211l36.63-31.2L153,78.45l13,19.22,10.49,31.88L184.67,149s77,60.06,83.87,60.06,71.3-46.73,71.3-46.73l10-20.55,31.46-60.45L414.5,190.87c18.47,21,27.67,31.72,32.3,37.24l68.4,19.71,7.52,1.63,9.22,2-36.6,35-70.79,71.14-.35.35L396,402.44l59.48-1.95-17.37-33.86L424,388l5.33-1.83,6.94-3.29,4.66,9.08-28.27.93,18.6-29.33,7.63-7.66L469,408.29l-92.75.88c23.47-20.08,30.64-28.43,42-58.39L406.83,357l-41,9.65L349.5,343.5l-2.5,5.67c-.06.09-3.17,7.89-16,16.47A110.28,110.28,0,0,1,267.67,385c-48.85,0-82.12-44-82.12-44l-10.87,25.5L123,347.29,119.17,350s19.9,39.84,41,58.32Zm202.18,3.81h-.16v.1a158.54,158.54,0,0,1-222.26-63.77l52.17,16.86,8.53-21.31c11.56,12.3,38,39.63,79.5,39.63,49.15,0,74.88-21.85,84.7-32.84l8.6,18.19,44.89-12.41A160.57,160.57,0,0,1,349.89,420.5Zm147.76,3.44L361,420.76q3.17-2.14,6.27-4.42,1.15-.86,2.29-1.73l108.68-1-35.43-61.64,6.71-6.74,12,2.11-5,12.4Z"/><path d="M386.7,333.87c25.05-7.58,63.78-40,74.69-55.78l2.78-4-28.5-4.56L426.91,247l-3.74-10-7.2,6.54c-14.89,20.77-42.76,25.61-43,25.66l-4-5,11.38,76.56Zm47.48-54.13,19.94-.45c-13.22,15.36-44.94,37.71-66.49,44l-.67.19-.67.73-.88-4.46C415.37,310.13,431.43,284.48,434.19,279.74Zm-6.54-1.41a95.29,95.29,0,0,1-14,16.88l-1.92-7.52a74.73,74.73,0,0,0,14.88-14.83Zm-4.07-21.85,2,10.86a67.16,67.16,0,0,1-14.92,16.17l-2.8-11A58.48,58.48,0,0,0,423.58,256.48Zm-47.31,17.14c7.35-1.67,28.78-7.85,42.43-25.38l4.47-.74c-11.52,21.74-38.14,30.1-45.81,31.59Zm2.2,11.11a79.25,79.25,0,0,0,25.87-9.88l2.87,11.25c-7.55,5.34-16.16,9.67-25.69,14Zm29.8,5.49,2.05,8a77.24,77.24,0,0,1-26.15,15.24l-1.85-9.33C390.6,300.42,399.72,296.12,408.27,290.23Z"/><path d="M173.92,354.13l11.34-25.78a94.42,94.42,0,0,0,83.41,50.31c34.07,0,65.25-18.5,81.83-45.65l5.33,10.17,13,15.67L422.67,343l49-42,26.83-31.3,21.83-17L442,234l-36-42.33s-23.27-79.71-23.33-80l-3-14-8.25,23.58L346.17,167l-47,30.57c-6.47,3.46-13.38,7.26-18,13.09a23,23,0,0,0-1.64,2.24c-.52.77-1.06,1.52-1.55,2.29l-1.34,2.41a22.11,22.11,0,0,0-1.25,2.44,50.42,50.42,0,0,0-2.06,5l-.88,2.55c-.31.84-.48,1.73-.72,2.59a104,104,0,0,0-3.07,20.9c0,.34,0,.67,0,1a113.83,113.83,0,0,0-2.87-20,59,59,0,0,0-9-20.43,46.94,46.94,0,0,0-5-5.86l-3-2.78c-.81-.68-1.64-1.34-2.49-2L179,153.33s-17.79-39.26-17.86-39.5l-6.06-23.38-19.9,83.65-42.71,46.6C89.2,223.53,33.17,264,33.17,264l47.17,61s58.52,24.37,85.58,30.63Zm94.75,15.53a85.43,85.43,0,0,1-85.33-85.33c0-.3,0-.59,0-.88.59,1.24,1.22,2.46,1.92,3.65a41.41,41.41,0,0,0,3.39,5A80.32,80.32,0,0,0,349,285,79.61,79.61,0,0,0,338.31,245a36.6,36.6,0,0,1,11.31,12.66A84.11,84.11,0,0,1,354,284.32,85.43,85.43,0,0,1,268.67,369.65ZM186.61,261.19a86,86,0,0,1,7.61-18.28,47.43,47.43,0,0,1,4.48-6.3,40.91,40.91,0,0,1,10.56-8.91,38.16,38.16,0,0,1,6.38-3,79.79,79.79,0,0,0-26.93,52.57A59,59,0,0,1,186.61,261.19Zm147.67-22.5c-.47-.66-.93-1.31-1.42-2a80,80,0,0,0-9.2-10.21,38.62,38.62,0,0,1,4.38,2.16,41,41,0,0,1,10.67,8.9,46.88,46.88,0,0,1,4.39,6.08A44.89,44.89,0,0,0,334.28,238.68Zm70.29-17c.28,5.2-.82,12.42-7.7,17.27-11.38,8-29,2.75-39.2-11.75s-9.29-32.84,2.1-40.87a17.56,17.56,0,0,1,10.3-3.33c9.7,0,19.65,7.69,26.21,17C401.17,206.93,404.19,214.84,404.56,221.69ZM351.42,174.5s20.35-34.2,26.58-43.83c2.22,8.37,3.36,23.53,5.67,29,3.49,8.45,6.47,19,10.66,27a46,46,0,0,0-13.57-9.1c-9.26-3.88-18.11-3.14-25.59,2.13-14.76,10.41-16.36,33.64-3.56,51.8,8.62,12.22,21.59,19.07,33.65,19.07a28,28,0,0,0,16.33-5c10.44-7.36,12.36-19.1,9.5-30.75,6.63,9.82,25.91,24.87,25.91,24.87L496.33,262l-35.42,36.5-41,34.5S383,344.68,372.67,347.33l-16-27.33A114.11,114.11,0,0,0,363,284.32a93.51,93.51,0,0,0-19-56.72c-7.68-10.19-30.75-23.86-30.75-23.86Zm-26.58,45.72a44.34,44.34,0,0,0-9.36-1.81c-.72-.06-1.45-.1-2.17-.12a80.26,80.26,0,0,0-20.22-9.8,52.25,52.25,0,0,1,6.63-3.66m-33.88,73.49a35,35,0,0,0,1.76,6.85A32.31,32.31,0,0,0,275.24,297,35.26,35.26,0,0,0,287,304.57a37.34,37.34,0,0,0,13.58,2.62,35.21,35.21,0,0,0,13.53-2.51,29.78,29.78,0,0,0,11.19-7.87,29.32,29.32,0,0,0,6.2-11.95,34.87,34.87,0,0,0,1-6.57,47.41,47.41,0,0,0-.14-6.58,41.46,41.46,0,0,1-2.32,12.7,28,28,0,0,1-6.7,10.56,26.79,26.79,0,0,1-10.49,6.36,32.44,32.44,0,0,1-12.15,1.61,34.58,34.58,0,0,1-6.08-.89,34.11,34.11,0,0,1-5.81-1.89,30.3,30.3,0,0,1-9.94-6.77,27.66,27.66,0,0,1-6.31-10,29.65,29.65,0,0,1-1.43-5.82c-.15-1-.23-2-.29-3l0-1.51a43.7,43.7,0,0,1-.29-6.62,58.11,58.11,0,0,1,6.61-25.85c2.33-4.36,6.34-7.58,10.36-10.31a38.55,38.55,0,0,1,13.18-5.74,37.67,37.67,0,0,1,13.63-.57,77.26,77.26,0,0,1,13,12.42,52.13,52.13,0,0,0-23.49-.55,36.55,36.55,0,0,0-11.6,4.56,22.52,22.52,0,0,0-4.8,3.95,17.16,17.16,0,0,0-3.24,5.24,17,17,0,0,1,3.51-5,22,22,0,0,1,4.91-3.56,35.44,35.44,0,0,1,11.49-3.73,50,50,0,0,1,23.77,2.3q1.4.49,2.76,1.08a76.28,76.28,0,1,1-137.35,56.28c.7.63,1.42,1.23,2.17,1.8a37.9,37.9,0,0,0,13.77,6.62,42.9,42.9,0,0,0,29.13-3.17A32.11,32.11,0,0,0,249.72,293a23,23,0,0,0,3.43-6.42,20.54,20.54,0,0,0,1-7.12,20.25,20.25,0,0,1-1.55,6.92,22.13,22.13,0,0,1-3.77,5.91,30.44,30.44,0,0,1-11.44,7.81,39.55,39.55,0,0,1-26.94.9,32.36,32.36,0,0,1-18.11-15c0-.35,0-.69,0-1a76.94,76.94,0,0,1,32.33-62.31,37.17,37.17,0,0,1,11.75.8,37.86,37.86,0,0,1,13.06,5.79,39.89,39.89,0,0,1,10.21,10.35A46,46,0,0,1,264.92,250a29.18,29.18,0,0,0-3.5-4.43,32.07,32.07,0,0,0-11.74-7.73,35.7,35.7,0,0,0-38.17,8.78,31.25,31.25,0,0,0-6.69,11.65,34.62,34.62,0,0,0-1.36,6.51,41.68,41.68,0,0,0-.14,6.58,39.09,39.09,0,0,1,2.88-12.58,30.19,30.19,0,0,1,7.18-10.32,32.93,32.93,0,0,1,34.55-6.23,27.15,27.15,0,0,1,9.75,6.82,28.42,28.42,0,0,1,5.93,10.29,35.35,35.35,0,0,1,1.37,5.91,46.35,46.35,0,0,1,.4,6.14c0,.55,0,1.08,0,1.65l.07,1.76C265.55,276,265.65,277.16,265.84,278.32Zm-21.59-69.83a80.12,80.12,0,0,0-18.66,8.78c-1.29,0-2.59,0-3.88.14a43.46,43.46,0,0,0-7.43,1.29,84.57,84.57,0,0,1,23.51-13.94A46,46,0,0,1,244.24,208.49ZM137,199c6.37-9,16-16.5,25.41-16.5a16.91,16.91,0,0,1,9.92,3.2c5.44,3.83,8.74,10.06,9.29,17.53a36.56,36.56,0,0,1-25.65,36.38c-7.22,2-14.2,1-19.64-2.87C124.39,228.3,128.29,211.24,137,199ZM88.67,319s-27-31.22-36-49.2c16.68-13.16,46.6-39.08,48-40.27l25.07-27.32c-7.4,14.74-8.51,32.15,5.28,41.87A29.34,29.34,0,0,0,148,249.4a35.47,35.47,0,0,0,9.41-1.31,46.27,46.27,0,0,0,32.63-46.29c-.74-10-5.24-18.38-12.67-23.62-10-7.08-21.27-5.34-31,.73l10.69-45c4.08,7.22,15.72,23.42,15.72,23.42s31.43,29.29,54.42,42.58a95.75,95.75,0,0,0-33.92,27.65,93.68,93.68,0,0,0-15.18,30.15l-.38,1.37s-3.13,15.24-3.38,24.1c0,.37,0,.73,0,1.1a93.94,93.94,0,0,0,5,30.35l-.31-.16-16.11,30.22C141.06,339.17,88.67,319,88.67,319Z"/><path class="cls-1" d="M228.65,262.7a9.8,9.8,0,1,0,9.8,9.8A9.81,9.81,0,0,0,228.65,262.7Z"/><path d="M228.65,259.76a12.74,12.74,0,1,0,12.74,12.74A12.75,12.75,0,0,0,228.65,259.76Zm0,21a8.29,8.29,0,1,1,8.29-8.29A8.3,8.3,0,0,1,228.65,280.79Z"/><path class="cls-1" d="M306.67,255.35a17,17,0,1,0,17,17A17,17,0,0,0,306.67,255.35Zm-.48,31.26A14.11,14.11,0,1,1,320.3,272.5,14.13,14.13,0,0,1,306.18,286.61Z"/><path d="M306.18,258.39A14.11,14.11,0,1,0,320.3,272.5,14.13,14.13,0,0,0,306.18,258.39Zm0,23.87a9.76,9.76,0,1,1,9.76-9.76A9.77,9.77,0,0,1,306.18,282.26Z"/></g></svg>